<svg width="24" height="24" viewBox="0 0 24 24" fill="none" xmlns="http://www.w3.org/2000/svg">
<path d="M7.67017 11.2183C7.67017 11.2183 7.67021 8.4958 7.67017 6.86229C7.67012 4.90183 9.43901 3.05077 12.0931 3.05077C14.7472 3.05077 16.516 4.90183 16.516 6.86229C16.516 8.4958 16.516 11.2183 16.516 11.2183" stroke="white" stroke-width="5" stroke-linecap="round" stroke-linejoin="round"/>
<path fill-rule="evenodd" clip-rule="evenodd" d="M3.40558 11.9505C3.40553 13.7941 3.40546 17.6454 3.4056 20.2271C3.40575 23.0819 8.2288 23.7276 12.0936 23.7276C15.9584 23.7276 20.7815 23.0819 20.7815 20.2271V11.9505C20.7815 11.3649 20.2629 10.8928 19.6231 10.8928H4.56396C3.92421 10.8928 3.40559 11.3649 3.40558 11.9505ZM10.3559 16.8383C10.3559 17.343 10.5956 17.7965 10.9765 18.1086V19.7543C10.9765 20.3399 11.4951 20.8147 12.1349 20.8147H12.3004C12.9402 20.8147 13.4588 20.3399 13.4588 19.7543V18.1086C13.8397 17.7965 14.0793 17.343 14.0793 16.8383C14.0793 15.8971 13.2459 15.1342 12.2177 15.1342C11.1894 15.1342 10.3559 15.8971 10.3559 16.8383Z" fill="white"/>
</svg>
