<svg width="24" height="24" viewBox="0 0 24 24" fill="none" xmlns="http://www.w3.org/2000/svg">
<g clip-path="url(#clip0_826_2283)">
<path d="M10.7749 0.0550518C5.94092 0.54779 1.82669 3.98625 0.462441 8.66726C-0.719191 12.7377 0.40873 17.2688 3.33058 20.2895C4.58741 21.5749 5.86572 22.4532 7.3911 23.0852C11.7954 24.8955 16.7797 23.9743 20.2279 20.7179C21.3344 19.6682 22.0004 18.7577 22.6986 17.3545C23.9447 14.8586 24.2884 12.2985 23.7621 9.64203C23.6332 9.03146 23.2142 7.57467 23.1283 7.47826C23.1175 7.45684 22.8275 7.56396 22.473 7.70321C21.7426 8.00314 21.764 7.91744 22.1722 9.37424C22.4301 10.2633 22.4623 10.5954 22.473 11.945C22.473 13.209 22.4301 13.6803 22.2367 14.4409C21.2699 18.2757 18.4232 21.1892 14.642 22.1961C13.7182 22.4425 13.353 22.4747 12.0102 22.4747C10.3022 22.4854 9.62546 22.3675 8.17527 21.7998C5.44678 20.7608 3.14797 18.4149 2.13821 15.6727C1.62259 14.2802 1.53665 13.7767 1.54739 11.945C1.54739 10.349 1.57962 10.0812 1.83743 9.21356C2.94387 5.52873 5.7583 2.76511 9.37839 1.81177C10.8501 1.42615 12.9877 1.39401 14.4057 1.7475C15.2865 1.96174 16.9516 2.63657 16.9516 2.77583C16.9516 2.81867 16.683 3.20429 16.3608 3.64347L15.7699 4.43614L16.1137 4.50041C17.4027 4.71464 20.8617 5.19667 20.8939 5.15382C20.9369 5.12169 19.5941 1.469 19.143 0.387115L18.9818 0.012205L18.434 0.772736L17.8861 1.54398L17.1772 1.19049C15.3403 0.258574 12.934 -0.159182 10.7749 0.0550518Z" fill="white"/>
<path d="M11.4209 6.05342C10.7549 6.14983 10.3467 6.35335 9.89549 6.82466C9.30467 7.43523 9.07909 8.09936 9.02538 9.39547C8.98241 10.3702 8.95018 10.5523 8.7998 10.5523C8.45605 10.5523 7.91894 10.9915 7.71484 11.4414C7.53223 11.8377 7.5 12.1484 7.5 14.2479C7.5 16.9151 7.59668 17.3114 8.27343 17.7292C8.60644 17.9327 8.81054 17.9434 12.0117 17.9434C16.6738 17.9434 16.4482 18.1148 16.5019 14.505C16.5234 13.0589 16.4911 12.0198 16.4267 11.752C16.2763 11.2165 15.7822 10.6809 15.3632 10.5952L15.0517 10.5309L14.998 9.42761C14.9013 7.67089 14.3212 6.64256 13.1826 6.23552C12.5595 6.02129 12.0761 5.96773 11.4209 6.05342ZM12.7207 7.64947C13.3437 7.92797 13.5156 8.35644 13.5156 9.57757V10.5523H12.0117H10.5078V9.49188C10.5078 8.57067 10.54 8.39928 10.7549 8.07793C11.1631 7.47808 11.958 7.30669 12.7207 7.64947ZM12.7851 12.2234C13.4082 12.5447 13.6875 13.4338 13.3437 13.9479C13.2363 14.1193 13.0429 14.3336 12.9033 14.4407C12.6777 14.6228 12.6562 14.7192 12.6562 15.5975V16.5509H12.0117H11.3672V15.6404V14.7192L10.9375 14.3121C10.5615 13.9479 10.5078 13.8515 10.5078 13.4124C10.5078 13.0053 10.5722 12.8446 10.8408 12.534C11.3564 11.9556 12.0332 11.8485 12.7851 12.2234Z" fill="white"/>
</g>
<defs>
<clipPath id="clip0_826_2283">
<rect width="24" height="24" fill="white"/>
</clipPath>
</defs>
</svg>
