<svg width="24" height="24" viewBox="0 0 24 24" fill="none" xmlns="http://www.w3.org/2000/svg">
<path d="M0.65625 3.67772C0.539063 3.72663 0.445312 3.79022 0.445312 3.81957C0.445312 3.85381 3.04688 5.84946 6.22031 8.25598L12 12.6386L17.7656 8.2462C20.9344 5.83478 23.5313 3.84402 23.5313 3.82446C23.5313 3.80489 23.4609 3.75109 23.3813 3.70218C23.2359 3.61902 22.6594 3.61413 12.0469 3.60435C1.55156 3.59457 0.853125 3.59946 0.65625 3.67772Z" fill="white"/>
<path d="M19.5656 8.37337C17.1375 10.2223 15.15 11.7533 15.1453 11.7826C15.1406 11.8071 17.1281 13.3527 19.5562 15.2163L23.9765 18.6011L23.9906 15.2016C23.9953 13.3332 23.9953 10.2761 23.9906 8.40761L23.9765 5.01304L19.5656 8.37337Z" fill="white"/>
<path d="M0 11.8315V18.6109L0.389063 18.3125C0.6 18.1511 2.59219 16.625 4.81406 14.9228C7.03594 13.2207 8.85 11.8071 8.84531 11.7826C8.83125 11.7435 0.0515625 5.05707 0.0140625 5.05707C0.0046875 5.05707 0 8.10435 0 11.8315Z" fill="white"/>
<path d="M5.18429 16.1359C2.60616 18.112 0.482723 19.7457 0.454598 19.775C0.426473 19.8043 0.468661 19.8533 0.567098 19.912C0.721786 19.9951 1.15304 20 11.9999 20C22.8468 20 23.278 19.9951 23.4327 19.912C23.5171 19.863 23.5687 19.8043 23.5499 19.7799C23.5265 19.7554 21.3937 18.1168 18.8062 16.1408L14.1046 12.5408L13.9546 12.6484C13.8702 12.7071 13.453 13.025 13.0265 13.3527C12.2343 13.9543 12.0515 14.0473 11.8265 13.9543C11.7562 13.9299 11.2968 13.5973 10.7999 13.2255C10.303 12.8489 9.89054 12.5408 9.88116 12.5408C9.87179 12.5457 7.75772 14.1598 5.18429 16.1359Z" fill="white"/>
</svg>
