<svg width="24" height="24" viewBox="0 0 24 24" fill="none" xmlns="http://www.w3.org/2000/svg">
<g clip-path="url(#clip0_826_2271)">
<path d="M11.8631 0.108522C10.6704 1.8553 10.3042 2.44383 9.91911 3.21078C9.65928 3.73357 9.55911 3.96522 9.42763 4.34087C9.30868 4.67896 9.27424 5.25496 9.34937 5.6087C9.51215 6.38191 10.0005 7.05183 10.6892 7.45252C10.877 7.55896 11.3028 7.71548 11.5094 7.74991C11.6158 7.7687 11.2683 7.77809 10.492 7.78122L9.30868 7.78435V10.0383V12.2922H7.87807C6.31911 12.2922 6.07807 12.311 5.58346 12.4643C3.8805 12.9997 2.80676 14.6181 3.02902 16.321C3.17928 17.4637 3.82102 18.431 4.81337 19.0132L4.96676 19.1009L5.18276 20.2748C5.54276 22.2595 5.73372 23.3113 5.79007 23.6619L5.84328 24H11.9883H18.1334L18.1647 23.8341C18.1835 23.7464 18.4026 22.632 18.6562 21.361L19.1163 19.0508L19.3855 18.8755C20.1807 18.3558 20.7598 17.5012 20.9414 16.559C21.0102 16.2083 21.0102 15.6261 20.9445 15.2473C20.6753 13.7384 19.4043 12.5301 17.8767 12.3235C17.7358 12.3047 17.0064 12.2922 16.1612 12.2922H14.693V10.0383V7.78435L13.5128 7.78122C12.8617 7.77809 12.3734 7.7687 12.4235 7.76243C12.7334 7.71861 13.1967 7.53704 13.4847 7.34296C14.0012 6.99548 14.3706 6.50713 14.5709 5.90609C14.6523 5.65878 14.6711 5.54296 14.6836 5.22991C14.7118 4.61322 14.5897 4.21878 14.0513 3.15443C13.7163 2.49078 13.4002 1.97113 12.8022 1.08835C12.5362 0.700174 12.2544 0.280696 12.1699 0.155478C12.0854 0.0302609 12.0102 -0.069913 12.0008 -0.069913C11.9915 -0.069913 11.9288 0.00834785 11.8631 0.108522ZM12.2888 3.68974C12.436 3.9527 12.5925 4.23757 12.6363 4.32522C12.7647 4.58817 12.893 5.00452 12.8868 5.15478C12.8774 5.53983 12.5706 5.8873 12.1699 5.9687C11.7097 6.06574 11.2276 5.7433 11.1275 5.27687C11.0868 5.08904 11.1275 4.89809 11.2996 4.48487C11.4092 4.22504 11.9664 3.21391 12.0008 3.21391C12.0102 3.21391 12.1417 3.42991 12.2888 3.68974ZM12.9087 10.9461V12.2922H12.0008H11.093V10.9461V9.6H12.0008H12.9087V10.9461ZM17.9017 14.1548C18.3901 14.2831 18.7876 14.5962 18.9942 15.0157C19.4607 15.9704 19.0975 17.0473 18.1522 17.5137C17.8798 17.6483 17.6638 17.689 17.2882 17.6703C16.8968 17.6515 16.684 17.5795 16.2676 17.3259C15.6979 16.9816 15.2064 16.8344 14.6304 16.8313C14.0826 16.8313 13.6662 16.9597 13.2061 17.2696C12.7365 17.5857 12.4642 17.6765 11.9727 17.6765C11.5313 17.6765 11.2558 17.5795 10.7831 17.2602C10.4795 17.0567 10.2134 16.9377 9.87841 16.8595C9.64989 16.8031 9.54033 16.7969 9.19911 16.8094C8.62311 16.8313 8.26937 16.9534 7.75911 17.304C7.35215 17.5857 7.05789 17.6765 6.57581 17.6765C6.04676 17.6765 5.63667 17.5169 5.30172 17.1788C4.95737 16.8313 4.8165 16.4557 4.81963 15.8922C4.81963 15.6323 4.83528 15.5197 4.89163 15.36C5.10137 14.7621 5.6085 14.3082 6.24085 14.1548C6.38172 14.1203 7.45233 14.1141 12.0635 14.111C17.0628 14.1078 17.7389 14.1141 17.9017 14.1548ZM9.53407 18.6595C9.61546 18.6814 9.80015 18.7816 9.95041 18.8817C11.1744 19.6957 12.8304 19.6957 14.0575 18.8786C14.3925 18.6563 14.5522 18.6031 14.7807 18.647C14.9873 18.6845 15.1688 18.7628 15.4568 18.9412C15.8669 19.201 16.4586 19.3951 16.9876 19.4483C17.1974 19.4671 17.2005 19.4703 17.1848 19.5517C17.1723 19.5955 17.0596 20.1809 16.9313 20.8539C16.7998 21.5238 16.6871 22.0998 16.6777 22.128C16.6621 22.1812 16.4116 22.1843 12.0008 22.1843H7.33963L7.30833 22.0184C7.28954 21.9308 7.2332 21.6146 7.18311 21.3235C7.12989 21.0292 7.05789 20.6223 7.02346 20.4157C6.92015 19.8334 6.86381 19.4828 6.8732 19.4765C6.87946 19.4734 7.00468 19.4546 7.15181 19.4327C7.70589 19.3576 8.26937 19.1447 8.69824 18.8504C9.03007 18.6219 9.24607 18.5718 9.53407 18.6595Z" fill="white"/>
</g>
<defs>
<clipPath id="clip0_826_2271">
<rect width="24" height="24" fill="white"/>
</clipPath>
</defs>
</svg>
