<svg width="26" height="25" viewBox="0 0 26 25" fill="none" xmlns="http://www.w3.org/2000/svg">
<g id="Iconos">
<path id="Vector" d="M2.66693 1.80277C2.55451 1.92208 2.54474 1.97089 2.54474 2.48069V3.02302H1.49879C0.423514 3.02302 0.188909 3.06098 0.100932 3.23995C0.0716063 3.29418 0.0520559 3.72805 0.0520559 4.2053V5.06761L0.3502 5.52316C0.736322 6.11431 0.794973 6.27701 0.799861 6.73799C0.799861 7.17728 0.741209 7.33998 0.320875 7.98535L0.0520559 8.40294V9.27068C0.0520559 9.7425 0.0716063 10.1818 0.100932 10.236C0.184021 10.4096 0.423514 10.453 1.37171 10.453C2.38345 10.453 2.50075 10.4801 2.81844 10.7892C3.05794 11.0224 3.18013 11.3261 3.18013 11.7057C3.18013 12.004 3.11659 12.1613 1.66008 15.4261C0.232898 18.6422 0.140033 18.8699 0.0667187 19.3255C-0.075022 20.2149 0.115595 21.1477 0.599468 21.9504C0.917163 22.4819 1.51345 22.9428 2.22704 23.2086L2.56918 23.3333H5.50174H8.43431L8.72757 23.1815C9.46071 22.8018 9.92503 21.9341 9.86149 21.0718C9.82239 20.5512 9.66599 20.2095 9.19678 19.6238C8.87908 19.2225 8.80088 19.0869 8.80088 18.9513C8.80088 18.8537 9.03549 17.9426 9.32386 16.923L9.85172 15.0736L11.2691 15.0519C12.6474 15.0302 12.6963 15.0248 13.0775 14.8838C13.6201 14.6831 14.0453 14.3957 14.4461 13.951C14.8469 13.5009 15.1108 13.029 15.2819 12.4325C15.3845 12.08 15.4138 11.8576 15.4334 11.2231L15.4627 10.453H16.6944C18.0825 10.453 18.2046 10.4313 18.3122 10.1493L18.3806 9.96486H20.9417C23.4539 9.96486 23.5028 9.96486 23.6299 9.85097L23.757 9.7425V8.92901V8.12093H24.2213C24.7736 8.12093 24.9153 8.06128 24.9838 7.80096C25.0131 7.67622 25.0278 6.84645 25.018 5.45266L25.0033 3.29961L24.8909 3.17487C24.7932 3.0664 24.7247 3.05013 24.2702 3.03386L23.757 3.01217V2.45899C23.757 1.61838 23.8596 1.66719 22.1245 1.66719C21.3034 1.66719 20.6827 1.68888 20.6289 1.72142C20.4969 1.80277 20.4334 2.06851 20.4334 2.56746V3.02302H18.3562H16.2789V4.73136V6.44513L16.1567 6.57529L16.0394 6.71087H12.9407H9.84194L9.7393 6.58613C9.63178 6.4614 9.63178 6.42886 9.63178 4.74221V3.02302H7.75005H5.86832V2.53492C5.86832 2.0197 5.79989 1.76481 5.64837 1.69973C5.60438 1.68346 4.93967 1.66719 4.1772 1.66719H2.78423L2.66693 1.80277ZM5.03742 2.80609V3.02302H4.20653H3.37563V2.80609V2.58915H4.20653H5.03742V2.80609ZM22.9261 2.80609V3.02302H22.0952H21.2643V2.80609V2.58915H22.0952H22.9261V2.80609ZM8.2437 5.96788C8.39521 6.16854 8.39521 6.40717 8.23881 6.57529L8.1215 6.71087H5.44798H2.76957L2.65715 6.59156C2.43232 6.35836 2.55451 5.91364 2.86243 5.82687C2.9162 5.8106 4.12344 5.80518 5.54084 5.80518L8.12639 5.81602L8.2437 5.96788ZM8.2437 7.8118C8.39521 8.00704 8.39521 8.23482 8.2437 8.43006L8.12639 8.58191L5.6386 8.59818C4.27495 8.60903 3.06283 8.59818 2.94552 8.58191C2.68159 8.53853 2.54474 8.38125 2.54474 8.12093C2.54474 7.87688 2.62294 7.75215 2.81356 7.68707C2.89665 7.65995 4.08922 7.64368 5.54084 7.6491L8.12639 7.65995L8.2437 7.8118ZM22.9261 8.58191V9.0429H20.6485H18.3659L18.3953 8.85308C18.4344 8.58191 18.6054 8.34329 18.84 8.22398C19.0258 8.13178 19.1919 8.12093 20.9857 8.12093H22.9261V8.58191ZM5.21826 10.4909C5.2036 10.518 4.42158 12.5464 3.47338 15.0085C1.58188 19.9221 1.60632 19.8353 1.78716 20.4264C1.90446 20.8278 2.27592 21.2616 2.62294 21.4026C2.86732 21.5057 2.99929 21.5165 4.1772 21.5165C5.03253 21.5165 5.51641 21.4948 5.62882 21.4514C5.90742 21.3484 6.16157 21.1315 6.28865 20.8874C6.35708 20.7573 7.09999 18.3656 7.94066 15.5671L9.47049 10.4801L9.87127 10.4638C10.2427 10.4475 10.2721 10.4584 10.2476 10.5452C10.233 10.5994 10.0619 11.2176 9.87127 11.9173C9.68065 12.6169 9.17234 14.4337 8.74223 15.9576C7.77448 19.3906 7.78426 19.1682 8.53206 20.1444C8.73246 20.4047 8.94262 20.7193 8.99639 20.844C9.25543 21.4297 8.94262 22.2161 8.36588 22.4331C8.13617 22.5144 3.04816 22.5198 2.68159 22.4331C2.22216 22.3246 1.8507 22.0914 1.51834 21.6955C0.9025 20.9633 0.711884 20.0631 0.98559 19.1357C1.0198 19.0272 1.44503 18.051 1.93379 16.9609C3.48316 13.5063 3.95726 12.3945 4.01102 12.08C4.07945 11.684 3.99636 11.1363 3.81063 10.7458L3.67378 10.453H4.45579C4.8859 10.453 5.22804 10.4692 5.21826 10.4909ZM14.6025 11.1688C14.5878 11.7003 14.5536 11.9715 14.4803 12.1993C14.2017 13.0616 13.6641 13.6581 12.8576 13.9944C12.6181 14.092 12.4519 14.1083 11.3571 14.13C10.6777 14.1408 10.1205 14.1354 10.1205 14.1191C10.1205 14.092 10.7804 11.7383 10.8292 11.5973C10.8488 11.543 10.9123 11.6081 11.0247 11.7925C11.2251 12.1233 11.5086 12.3891 11.9045 12.6114C12.3395 12.8555 12.9358 13.0724 13.0678 13.0345C13.2242 12.9911 13.3708 12.6819 13.3268 12.4921C13.2828 12.2915 13.1655 12.1938 12.7256 11.9986C12.0218 11.684 11.6797 11.3532 11.494 10.8109C11.4402 10.6428 11.3913 10.4909 11.3913 10.4801C11.3913 10.4638 12.1196 10.453 13.0091 10.453H14.6318L14.6025 11.1688ZM6.73342 12.9097C7.08533 13.1755 7.20263 13.7774 6.98269 14.1408C6.80674 14.4228 6.63567 14.5367 6.33753 14.5638C5.38933 14.6506 5.09607 13.17 5.99051 12.8121C6.23489 12.7091 6.52326 12.7524 6.73342 12.9097ZM5.03742 17.5141C5.2818 17.6985 5.38933 17.8992 5.41865 18.2029C5.44798 18.5391 5.37467 18.7506 5.15472 18.9676C4.85658 19.255 4.42158 19.2875 4.11366 19.0381C3.90838 18.8754 3.75687 18.4903 3.7813 18.2191C3.81063 17.9317 4.00125 17.6009 4.21141 17.487C4.45579 17.3514 4.84192 17.3677 5.03742 17.5141Z" fill="#FFF"/>
<path id="Vector_2" d="M10.4637 4.40563V5.78857H12.9564H15.4491V4.40563V3.02268H12.9564H10.4637V4.40563Z" fill="#FFF"/>
</g>
</svg>
