<?xml version="1.0" standalone="no"?>
<!DOCTYPE svg PUBLIC "-//W3C//DTD SVG 20010904//EN"
 "http://www.w3.org/TR/2001/REC-SVG-20010904/DTD/svg10.dtd">
<svg version="1.0" xmlns="http://www.w3.org/2000/svg"
 width="900.000000pt" height="900.000000pt" viewBox="0 0 900.000000 900.000000"
 preserveAspectRatio="xMidYMid meet">
<metadata>
Created by potrace 1.16, written by Peter Selinger 2001-2019
</metadata>
<g transform="translate(0.000000,900.000000) scale(0.100000,-0.100000)"
fill="#FFF" stroke="none">
<path d="M1678 7309 l-1118 -559 0 -2810 c0 -1546 2 -2810 5 -2810 3 0 509
252 1125 560 l1120 560 1403 -561 c1006 -402 1409 -559 1427 -555 14 3 648
255 1410 560 l1385 555 3 2810 c1 1546 -1 2811 -5 2811 -5 0 -638 -252 -1408
-560 l-1400 -560 -1400 560 c-770 308 -1407 560 -1415 559 -8 0 -518 -252
-1132 -560z m2555 -608 c757 -303 1384 -551 1392 -551 8 0 511 199 1117 441
607 243 1110 444 1118 446 13 4 15 -246 15 -2199 l0 -2203 -25 -12 c-14 -6
-520 -209 -1125 -451 l-1100 -440 -1410 564 c-775 310 -1418 564 -1427 564
-10 0 -387 -185 -838 -410 l-820 -410 0 162 c-2 913 0 4201 2 4203 15 14 1705
853 1713 851 6 -2 630 -252 1388 -555z"/>
<path d="M3868 5896 c-95 -26 -176 -103 -199 -190 -18 -65 -6 -167 24 -219
116 -198 404 -184 501 23 30 65 29 169 -3 233 -60 123 -197 188 -323 153z"/>
<path d="M3043 5619 c-88 -16 -173 -83 -209 -166 -25 -56 -23 -166 3 -223 47
-103 143 -164 258 -164 81 0 147 29 202 86 77 80 97 216 47 316 -56 112 -178
173 -301 151z"/>
<path d="M4733 5619 c-87 -16 -163 -73 -206 -153 -31 -58 -31 -183 0 -242 35
-66 70 -101 131 -131 81 -40 175 -39 251 2 140 77 190 233 120 374 -57 114
-173 173 -296 150z"/>
<path d="M2437 5046 c-46 -17 -99 -56 -132 -100 -111 -146 -40 -370 138 -430
128 -43 263 10 335 132 24 41 27 57 27 132 0 68 -5 93 -22 126 -67 125 -217
186 -346 140z"/>
<path d="M5524 5044 c-104 -37 -178 -148 -178 -263 1 -109 52 -195 144 -245
187 -102 411 31 413 245 3 195 -192 329 -379 263z"/>
<path d="M6180 4215 l-195 -195 183 -183 182 -182 -180 -180 -180 -180 200
-200 200 -200 180 180 180 180 180 -180 180 -180 200 200 200 200 -180 180
-180 180 182 183 183 182 -195 195 c-107 107 -199 195 -205 195 -5 0 -90 -80
-187 -177 l-178 -178 -178 178 c-97 97 -182 177 -187 177 -6 0 -98 -88 -205
-195z"/>
<path d="M2185 4211 c-137 -36 -224 -157 -213 -295 12 -147 130 -256 278 -256
106 0 201 58 253 155 32 60 31 183 -3 248 -44 87 -130 144 -227 152 -32 2 -71
1 -88 -4z"/>
</g>
</svg>
