<svg width="26" height="25" viewBox="0 0 26 25" fill="none" xmlns="http://www.w3.org/2000/svg">
<g id="Iconos">
<path id="Vector" d="M11.5903 0.0125065C8.98733 0.247267 6.60454 1.19121 4.66699 2.75629C2.14721 4.79089 0.552156 7.64717 0.0824482 10.9632C-0.0105148 11.6332 0.00416353 13.5211 0.111805 14.2156C0.410265 16.1769 1.05122 17.8642 2.0836 19.4195C2.98877 20.7792 4.24132 22.0312 5.60151 22.9312C7.15742 23.968 8.84054 24.6087 10.8074 24.912C11.5952 25.0293 13.4447 25.0293 14.2324 24.912C15.6611 24.6919 16.8451 24.3251 18.0488 23.7235C19.36 23.073 20.2995 22.3981 21.3172 21.3905C23.2889 19.444 24.4975 17.0474 24.9329 14.2156C25.0504 13.4282 25.0504 11.5794 24.9329 10.792C24.6296 8.84054 24.0033 7.17764 22.9709 5.60767C22.0951 4.27246 20.7496 2.93236 19.4188 2.05689C17.858 1.0347 16.1699 0.393993 14.2813 0.105433C13.7872 0.0320683 12.0551 -0.0266209 11.5903 0.0125065ZM13.4055 2.91769C16.439 3.22092 19.1154 4.87404 20.7007 7.43197C21.2633 8.33189 21.7184 9.45679 21.9288 10.4741C22.0364 10.9779 22.0413 11.0365 21.9679 11.0365C21.7135 11.0365 20.6224 10.9192 20.0793 10.836C18.6848 10.6257 17.8677 10.3616 15.7834 9.42745C14.6776 8.93347 14.1248 8.77696 13.156 8.68892C11.8398 8.56665 10.7928 8.76229 9.38853 9.38343C9.02647 9.54483 8.50783 9.7747 8.23873 9.89697C6.77578 10.5426 5.40091 10.8605 3.40954 11.0121L2.98877 11.0463L3.1013 10.5132C3.48783 8.68892 4.3881 7.03581 5.71405 5.7006C7.73477 3.68066 10.6019 2.63891 13.4055 2.91769ZM13.3664 10.3469C13.9339 10.5719 14.4477 11.0806 14.6825 11.6626C14.7755 11.8973 14.7951 12.0294 14.7951 12.5038C14.7951 12.9782 14.7755 13.1103 14.6825 13.3499C14.4477 13.9222 13.9388 14.4308 13.3615 14.6656C13.1266 14.7585 12.9945 14.7781 12.5199 14.7781C12.0453 14.7781 11.9132 14.7585 11.6784 14.6656C11.0961 14.4308 10.5873 13.9173 10.3622 13.3499C10.1958 12.9293 10.1763 12.2201 10.3133 11.8044C10.553 11.0855 11.0276 10.5964 11.7615 10.3176C12.1627 10.166 12.9407 10.1757 13.3664 10.3469ZM8.31212 14.5042C8.72311 14.6118 9.23686 14.9052 9.57935 15.2231C10.1469 15.7465 10.4601 16.3236 10.5628 17.0377C10.6166 17.424 10.6313 21.9432 10.5775 21.9432C10.4747 21.9432 9.60382 21.6889 9.19282 21.5373C6.59475 20.5933 4.42725 18.4267 3.48294 15.8296C3.33126 15.4139 3.07684 14.5482 3.07684 14.4455C3.07684 14.377 8.0577 14.4357 8.31212 14.5042ZM21.963 14.4504C21.963 14.5433 21.6645 15.5362 21.5275 15.9079C20.8279 17.8104 19.3698 19.5809 17.6133 20.6716C17.1045 20.9846 16.4146 21.3318 15.9253 21.5079C15.5486 21.6497 14.5602 21.9432 14.4673 21.9432C14.4379 21.9432 14.4281 20.8819 14.4379 19.4342L14.4526 16.9301L14.5847 16.5681C14.9712 15.5117 16.0085 14.6118 17.0115 14.465C17.3785 14.4113 21.963 14.4015 21.963 14.4504Z" fill="#FFF"/>
</g>
</svg>
