<svg width="26" height="25" viewBox="0 0 26 25" fill="none" xmlns="http://www.w3.org/2000/svg">
<g id="Iconos">
<path id="Vector" d="M11.625 0.0496025C10.0544 0.23514 8.40502 1.02123 7.27754 2.12468C7.06091 2.33951 6.74088 2.69594 6.56856 2.91565L6.25346 3.3209H5.80542C4.6681 3.3209 3.57509 3.6578 2.53623 4.33159C2.14728 4.5806 1.26105 5.4741 0.99026 5.88424C0.517606 6.61173 0.251738 7.27088 0.0843397 8.13509C-0.0239768 8.71611 0.0104875 9.91233 0.158192 10.4494C0.453601 11.5626 0.867173 12.3048 1.61062 13.0811C2.45746 13.96 3.44215 14.5117 4.60902 14.7705L4.98812 14.8535V18.8425C4.98812 21.0494 5.01274 22.9682 5.03736 23.144C5.16537 24.0277 5.88912 24.7894 6.75565 24.9505C7.11014 25.014 17.8482 25.0189 18.252 24.9505C19.1333 24.809 19.8767 24.0424 20.0047 23.144C20.0294 22.9682 20.054 21.0494 20.054 18.8425V14.8535L20.438 14.7705C22.3729 14.3457 23.9681 12.9786 24.6623 11.1476C24.9085 10.5031 24.9824 10.1174 25.0119 9.32643C25.0316 8.73075 25.0218 8.47686 24.9578 8.1302C24.8002 7.30017 24.5146 6.5922 24.0518 5.88424C23.781 5.4741 22.8948 4.5806 22.5059 4.33159C21.467 3.6578 20.374 3.3209 19.2367 3.3209H18.7886L18.4785 2.91565C16.8636 0.845457 14.2443 -0.253115 11.625 0.0496025ZM13.422 1.73408C14.5052 1.8952 15.5194 2.36881 16.3909 3.11584C16.7454 3.41855 17.1639 3.91169 17.5528 4.48783C17.9024 5.00538 17.9073 5.01026 18.8379 4.99073C19.7339 4.9712 20.1574 5.03467 20.7482 5.27392C21.9347 5.75241 22.8603 6.76797 23.2148 7.99349C23.3084 8.31574 23.3281 8.49151 23.3281 9.13112C23.3281 10.01 23.2542 10.3273 22.8751 11.0402C22.3582 12.0167 21.4128 12.7833 20.3494 13.086C19.6109 13.2959 18.4243 13.2618 17.8187 13.0127L17.6365 12.9346L17.996 12.544C18.1929 12.3292 18.4932 11.963 18.6606 11.7286C19.217 10.9572 19.7733 9.71215 19.7733 9.22877C19.7783 8.62822 19.1727 8.2425 18.6114 8.48663C18.3357 8.60869 18.2667 8.70634 18.0304 9.35572C17.7005 10.2541 17.2968 10.8937 16.6322 11.5529C15.933 12.2511 14.9385 12.8126 13.9489 13.0713C13.4762 13.1934 13.3531 13.2032 12.5457 13.208C11.9696 13.208 11.5659 13.1836 11.3886 13.1446C10.1627 12.8467 9.22231 12.3487 8.43456 11.5724C7.7502 10.9035 7.34647 10.2688 7.01167 9.35572C6.77535 8.70634 6.70642 8.60869 6.4307 8.48663C5.86943 8.2425 5.26384 8.62822 5.26876 9.22877C5.26876 9.71215 5.82512 10.9572 6.38147 11.7286C6.54887 11.963 6.8492 12.3292 7.04614 12.544L7.40555 12.9346L7.22338 13.0127C6.61779 13.2618 5.43124 13.2959 4.69272 13.086C3.33876 12.7003 2.22605 11.587 1.82725 10.2297C1.7337 9.89768 1.71401 9.72679 1.71401 9.10671C1.71401 8.28644 1.79771 7.88608 2.0882 7.30994C2.42792 6.64103 3.07781 5.92818 3.67356 5.57664C4.44162 5.11768 5.09152 4.96632 6.20422 4.99073C7.13476 5.01026 7.13968 5.00538 7.48925 4.48783C7.85851 3.94098 8.28685 3.4332 8.59703 3.15978C9.97068 1.96844 11.6594 1.47042 13.422 1.73408ZM9.33063 14.1894C11.1917 15.1171 13.8504 15.1171 15.7115 14.1894L16.0561 14.0185L16.5928 14.2822C17.0802 14.5263 17.7301 14.7412 18.1978 14.8193L18.38 14.8486L18.3701 18.9499L18.3554 23.0561L18.1929 23.1977L18.0353 23.3393H12.521H7.00675L6.8492 23.1977L6.68672 23.0561L6.67195 18.9499L6.66211 14.8486L6.84427 14.8193C7.31201 14.7412 7.96191 14.5263 8.43456 14.2822C8.72012 14.1406 8.95645 14.0185 8.96629 14.0185C8.97122 14.0137 9.13862 14.0918 9.33063 14.1894Z" fill="#FFF"/>
</g>
</svg>
