<svg width="25" height="25" viewBox="0 0 25 25" fill="none" xmlns="http://www.w3.org/2000/svg">
<g id="Iconos">
<path id="Vector" d="M12.4736 0.0803909C12.4004 0.134129 12.2978 0.309998 12.2392 0.466324C11.9118 1.3359 10.7687 2.85521 9.66463 3.88111C8.91719 4.5797 8.42378 4.94609 7.0266 5.84986C5.04808 7.13468 4.45696 7.57435 3.73395 8.30713C2.12182 9.92415 1.51116 11.6144 1.731 13.8617C1.98503 16.4362 3.11841 18.3072 4.97968 19.2159C6.9924 20.1929 9.40083 19.6946 11.1888 17.9311L11.6529 17.4767L11.6187 17.6624C11.6041 17.7601 11.4917 18.1411 11.3745 18.5026C10.4951 21.2139 8.53125 23.1143 5.66362 24.0425C5.26303 24.1744 4.89175 24.3161 4.8429 24.3649C4.70123 24.4968 4.72077 24.7509 4.87709 24.8876L5.009 25H12.6495C18.2578 25 20.3242 24.9853 20.4122 24.9463C20.632 24.8437 20.676 24.4822 20.4854 24.3356C20.4464 24.3063 20.2314 24.2086 20.0018 24.1207C18.7023 23.6175 17.4615 22.7968 16.4747 21.7904C15.6149 20.9159 15.0872 20.1832 14.589 19.1817C14.3496 18.6883 13.9441 17.6917 13.9441 17.5891C13.9441 17.5744 14.0955 17.7063 14.2861 17.8822C15.1801 18.7274 16.3574 19.3087 17.5152 19.4797C18.1601 19.5725 19.1322 19.5188 19.6843 19.3624C21.9364 18.7078 23.3335 16.7635 23.6169 13.8861C23.8709 11.3164 23.0111 9.43563 20.759 7.63786C20.4659 7.40337 19.5963 6.79271 18.8293 6.27976C18.0624 5.76681 17.2074 5.17081 16.929 4.95098C15.3559 3.72478 13.6168 1.67298 13.1283 0.461439C12.9866 0.0999317 12.9377 0.0461941 12.7472 0.0071125C12.6397 -0.0124283 12.5616 0.0071125 12.4736 0.0803909Z" fill="#FFF"/>
</g>
</svg>
