<svg width="26" height="25" viewBox="0 0 26 25" fill="none" xmlns="http://www.w3.org/2000/svg">
<g id="Iconos">
<path id="Vector" d="M11.6688 0.0299911C9.2655 0.197815 6.98759 1.04777 5.0203 2.50946C4.3718 2.99128 3.0748 4.2635 2.60614 4.88607C1.26555 6.64553 0.40997 8.70273 0.110244 10.8845C-0.00964632 11.7506 -0.00964632 13.2178 0.115694 14.1327C0.366373 16.022 1.06937 17.8898 2.13748 19.4706C2.66609 20.261 3.0966 20.7699 3.88134 21.5224C5.80503 23.3738 8.14834 24.5107 10.8513 24.9113C11.6851 25.0304 13.369 25.0304 14.23 24.9059C15.587 24.711 16.8676 24.3158 18.0774 23.7149C19.3635 23.0761 20.2791 22.4156 21.3417 21.36C25.5815 17.1589 26.2354 10.4947 22.8948 5.52489C20.3989 1.8111 16.1265 -0.278591 11.6688 0.0299911ZM14.0938 0.544292C14.8458 0.641739 15.369 0.755426 16.0175 0.950319C16.5025 1.1019 16.5897 1.15063 17.0475 1.535C17.7069 2.08719 18.3663 2.73684 18.6878 3.15911C18.8295 3.34859 18.9439 3.52182 18.9439 3.54348C18.9439 3.56513 18.715 3.68965 18.4426 3.81958C18.1646 3.95492 17.5216 4.33929 17.0093 4.67494L16.0883 5.2921L15.7014 5.12428C14.7968 4.73449 14.0557 4.50712 12.9494 4.28515C12.3663 4.16605 10.7042 3.92785 10.4753 3.92785C10.4317 3.92785 10.2573 3.70048 10.0829 3.42979C9.69602 2.82887 9.21101 2.16299 8.90038 1.83275C8.6824 1.59455 8.67695 1.58913 8.78049 1.50793C8.98757 1.35093 9.8704 0.944904 10.2464 0.836632C11.2491 0.538877 11.6906 0.4685 12.6224 0.4685C13.1183 0.4685 13.7777 0.500982 14.0938 0.544292ZM9.40719 0.912422C9.09111 1.04235 8.74779 1.24266 8.42627 1.48627C8.32273 1.56748 8.05025 1.70282 7.82682 1.78403C7.26551 1.99516 5.77778 2.7206 5.16743 3.08331C4.57343 3.4352 4.56798 3.39731 5.14564 2.96421C6.35544 2.05471 7.4181 1.4971 8.83499 1.02611C9.60337 0.771667 9.88675 0.717529 9.40719 0.912422ZM19.1183 2.39578C19.8594 2.88842 20.3989 3.33776 21.0583 3.99282C22.0883 5.02683 22.9057 6.18536 23.4507 7.39803L23.6142 7.74992L23.418 7.65247C23.309 7.59834 23.1292 7.53879 23.0202 7.51713C22.9057 7.50089 22.8131 7.47382 22.8131 7.45217C22.8131 7.37638 21.9793 6.33153 21.4725 5.76309C21.1782 5.43827 20.5679 4.82111 20.1156 4.39884C19.6469 3.96033 19.1837 3.4731 19.0311 3.25114C18.884 3.04542 18.4262 2.53653 18.012 2.12509L17.26 1.38342L17.9521 1.73531C18.339 1.92478 18.8622 2.22254 19.1183 2.39578ZM3.7342 4.47463C3.33093 5.27586 2.92222 6.72673 2.92222 7.35472C2.92222 7.47924 2.82957 7.60917 2.5135 7.94481C1.77236 8.7298 1.07482 9.92081 0.660649 11.1281L0.464465 11.6965L0.497163 11.3446C0.753292 8.81642 1.79961 6.42356 3.49442 4.50712C3.7233 4.24726 3.91948 4.03613 3.93583 4.03613C3.94673 4.03613 3.85954 4.23643 3.7342 4.47463ZM11.7505 4.31222C13.2382 4.51253 14.6388 4.88607 15.5761 5.31917C15.805 5.42203 16.0121 5.55196 16.0284 5.60068C16.0502 5.64941 16.2954 6.32071 16.5734 7.09486C16.8513 7.86902 17.2055 8.83266 17.3581 9.23869C17.5107 9.6393 17.636 10.002 17.636 10.0399C17.636 10.1211 17.0529 10.8628 16.4426 11.5612C15.7014 12.4057 15.1347 13.0012 14.4426 13.6454L13.7614 14.2843L13.0693 14.1597C12.6878 14.0948 11.5325 13.8999 10.5026 13.7212C9.45623 13.548 8.59521 13.3748 8.55706 13.3369C8.42082 13.1961 7.82682 12.0701 7.58704 11.5124C7.08568 10.3214 6.8459 9.29824 6.8459 8.3725V7.84737L7.14562 7.48465C7.60884 6.92704 9.00392 5.47617 9.74506 4.77239L10.4154 4.1444L10.6878 4.17147C10.8404 4.19312 11.3145 4.25267 11.7505 4.31222ZM4.17561 7.82571C4.55163 7.85819 5.24918 7.9015 5.72874 7.92316C6.38268 7.95023 6.59522 7.97729 6.58432 8.03143C6.54617 8.23174 6.70966 9.48772 6.8459 10.0183C7.08023 10.9548 7.56524 12.1079 8.10474 13.0337C8.22464 13.2286 8.31728 13.4181 8.31728 13.4451C8.31728 13.4776 8.19194 13.6779 8.03935 13.8999C7.429 14.7769 6.8023 15.9084 6.29549 17.0507L6.06116 17.5866L5.08024 17.5541C4.21921 17.5325 4.02848 17.5108 3.60341 17.3809C3.0857 17.2293 2.4917 16.937 2.18653 16.6879C1.97944 16.5201 1.41814 15.4428 1.2274 14.8635C0.949476 13.9919 0.633402 12.5194 0.633402 12.1025C0.633402 11.821 1.03122 10.7004 1.36909 10.0183C1.72876 9.29824 2.05574 8.80018 2.58979 8.1776L2.99306 7.70661L3.24374 7.73368C3.37998 7.74992 3.79959 7.79323 4.17561 7.82571ZM23.2382 7.82571C23.7068 8.03685 23.7722 8.11264 23.9521 8.65401C24.3826 9.93705 24.557 11.0685 24.557 12.5194C24.557 13.8999 24.3935 14.9934 24.0066 16.2007C23.9139 16.493 23.8267 16.7367 23.8213 16.7475C23.8104 16.7583 23.7068 16.7042 23.5815 16.6284C23.4616 16.5526 23.26 16.4497 23.1401 16.401C22.9493 16.3252 22.9221 16.2927 22.9221 16.1412C22.9221 15.8055 22.8077 14.4412 22.7259 13.7808C22.6169 12.8875 22.4589 12.1892 22.2354 11.5666L22.0556 11.0631L22.2136 10.5921C22.3444 10.1969 22.557 9.28741 22.8131 8.02602C22.8458 7.85819 22.9057 7.71744 22.9384 7.71744C22.9766 7.71744 23.1074 7.76616 23.2382 7.82571ZM20.0338 10.8032C20.6169 10.9494 21.2654 11.101 21.4725 11.1389C21.8376 11.2039 21.8485 11.2093 21.9466 11.4204C22.3063 12.227 22.557 13.7266 22.6769 15.7893L22.715 16.4172L22.0992 17.251C20.9385 18.8263 20.0938 19.7575 19.5216 20.0877C19.26 20.2393 19.2436 20.2447 18.4044 20.2393C17.4071 20.2393 16.7423 20.1365 15.8976 19.8604C15.3581 19.6817 14.6933 19.3894 14.6933 19.3298C14.6933 19.3136 14.6333 18.7018 14.557 17.971C14.4153 16.6067 14.23 15.4536 14.0448 14.7931L13.9412 14.425L14.9494 13.4397C15.9467 12.4653 16.9766 11.3338 17.527 10.5975L17.8159 10.2186L18.3935 10.3756C18.7096 10.4622 19.4507 10.6571 20.0338 10.8032ZM2.88952 17.3322C3.58706 17.6516 4.07207 17.7436 5.15108 17.7598L6.09386 17.7707L6.86225 18.7668C7.70693 19.8604 8.57341 20.7644 9.28185 21.2733C9.71236 21.5873 9.71781 21.5982 9.67422 21.7606C9.58702 22.0583 9.55978 22.8379 9.61972 23.3901C9.66332 23.8015 9.65787 23.9369 9.60882 23.9694C9.57068 23.991 9.39084 24.0127 9.20011 24.0127C8.78594 24.0127 8.13199 23.7853 7.14562 23.2981C5.26553 22.3669 3.7015 20.9972 2.4917 19.2161C2.21377 18.8047 2.14293 18.6585 2.09933 18.377C2.04484 18.063 2.07208 17.343 2.14293 17.0452L2.17018 16.9207L2.32821 17.0344C2.41541 17.094 2.66609 17.2293 2.88952 17.3322ZM15.0802 19.79C15.6306 20.0336 16.4862 20.288 17.1238 20.3909C17.3581 20.4288 17.9248 20.4613 18.3826 20.4667H19.2055L19.2382 20.6562C19.2872 20.9539 19.2763 21.6956 19.2164 22.0096C19.0911 22.6701 19.0911 22.6647 18.606 22.9408C17.1129 23.7853 15.5597 24.305 13.9303 24.4999C13.3309 24.5703 11.7505 24.5703 11.1238 24.4945C10.6224 24.4403 10.1647 24.2671 9.99029 24.0776C9.80501 23.8773 9.74506 22.3777 9.89765 21.7931C9.95759 21.5711 9.83226 21.6306 11.478 21.0568C12.7042 20.6291 14.0393 20.0174 14.3663 19.7413C14.4698 19.6492 14.5679 19.5788 14.5788 19.5734C14.5897 19.5734 14.8132 19.6709 15.0802 19.79Z" fill="#FFF"/>
</g>
</svg>
