<svg width="26" height="25" viewBox="0 0 26 25" fill="none" xmlns="http://www.w3.org/2000/svg">
<g id="Iconos">
<path id="Vector" d="M11.3799 0.0283813C9.29757 0.233561 7.4048 0.892624 5.70162 2.00246C3.80575 3.23976 2.20203 5.06151 1.24477 7.06668C0.794108 8.01486 0.551685 8.7019 0.31237 9.74024C0.197374 10.2376 0.110351 10.7848 0.051299 11.3848C0.0108951 11.8231 0.0108951 13.1599 0.051299 13.5982C0.175619 14.8853 0.446014 15.9982 0.924644 17.2013C1.1018 17.6521 1.49962 18.4417 1.8011 18.9423C2.96659 20.8915 4.80652 22.6075 6.84226 23.6427C9.72958 25.1101 13.1297 25.4023 16.2004 24.4479C19.1841 23.5215 21.7171 21.5101 23.3084 18.8055C25.6114 14.8977 25.5896 9.99516 23.2555 6.08741C22.2206 4.35582 20.6697 2.79831 18.9634 1.77552C17.7855 1.06983 16.6262 0.603508 15.2649 0.286411C14.7676 0.171385 14.2206 0.0843391 13.6208 0.0252724C13.2354 -0.00892448 11.756 -0.00892448 11.3799 0.0283813ZM13.4157 0.911278C16.7163 1.18174 19.6596 2.77344 21.6984 5.38793C23.0753 7.15372 23.902 9.29568 24.0916 11.59C24.1506 12.277 24.1506 12.706 24.0916 13.3931C23.8585 16.2034 22.693 18.7246 20.7194 20.6987C18.7552 22.6666 16.2315 23.8324 13.4436 24.0718C12.505 24.1526 11.5788 24.1122 10.5998 23.9505C6.61848 23.2883 3.23699 20.5619 1.72651 16.791C1.28517 15.6842 1.03653 14.6241 0.937076 13.3931C0.846944 12.2988 0.912212 11.2511 1.1422 10.1351C1.79177 6.95787 3.8244 4.12576 6.64024 2.47189C8.69462 1.26879 11.0784 0.718533 13.4157 0.911278Z" fill="#FFF"/>
<path id="Vector_2" d="M6.03396 4.96242C5.76046 5.13341 5.74181 5.53133 5.99978 5.69921C6.03707 5.72408 6.29814 5.81734 6.57475 5.90128C7.5662 6.20905 8.71305 6.71889 9.37505 7.14479L9.63612 7.31578L9.04871 7.38106C7.93916 7.50852 6.95704 7.66085 5.98734 7.86292C5.32845 7.99971 5.14508 8.05878 5.03941 8.17069C4.95549 8.25774 4.94617 8.28883 4.94617 8.46603C4.94617 8.6339 4.9586 8.67432 5.02387 8.74582C5.19481 8.92924 5.30669 8.94789 5.65479 8.85774C6.35719 8.67121 7.98578 8.39764 9.20411 8.26396C9.37505 8.2453 9.63301 8.21733 9.77909 8.20178C9.92517 8.18313 10.2173 8.15515 10.4318 8.1365C10.8607 8.09919 10.9788 8.06189 11.0782 7.93753C11.2461 7.72614 11.1932 7.49298 10.9166 7.22562C10.0619 6.39558 8.74413 5.67434 7.0596 5.11475C6.41935 4.90336 6.18315 4.86916 6.03396 4.96242Z" fill="#FFF"/>
<path id="Vector_3" d="M18.2797 5.01449C16.5082 5.55852 14.9977 6.35748 14.1368 7.19996C13.8726 7.4611 13.8229 7.56369 13.8664 7.76266C13.8943 7.89633 14.0187 8.03312 14.1399 8.07353C14.1958 8.09219 14.401 8.12017 14.5968 8.13882C15.0132 8.17612 15.7995 8.25695 15.9798 8.27871C17.3629 8.4497 18.5004 8.64244 19.3023 8.8414C19.4701 8.88182 19.6441 8.91602 19.6845 8.91602C19.8648 8.91602 20.0637 8.73571 20.0886 8.54918C20.1259 8.26939 20.0047 8.10773 19.7001 8.01758C18.9759 7.80618 17.0925 7.49219 15.6069 7.33675L15.3893 7.31499L15.6535 7.14401C16.2906 6.73365 17.4561 6.21137 18.3574 5.93158C18.9728 5.74505 19.0443 5.71085 19.1251 5.59272C19.2618 5.39065 19.1997 5.0891 19.0008 4.96785C18.8578 4.88081 18.6775 4.89324 18.2797 5.01449Z" fill="#FFF"/>
<path id="Vector_4" d="M10.8679 9.85236C8.41571 10.0047 6.16863 10.4026 4.32559 11.015C3.61697 11.2544 3.59521 11.2762 3.59521 11.8264C3.59521 12.986 3.97439 14.329 4.60842 15.4047C4.96584 16.0078 5.32326 16.4616 5.92931 17.0834C7.50817 18.7 9.93551 19.6419 12.5307 19.6419C14.6783 19.6419 16.6892 18.9953 18.3022 17.7922C18.7 17.4938 19.3092 16.9031 19.6884 16.4523C20.7731 15.1497 21.4071 13.4772 21.4444 11.8233C21.4537 11.3011 21.4071 11.2482 20.7047 11.015C19.3496 10.5674 17.5252 10.1788 15.9495 10.0047C15.2471 9.93008 15.0419 9.91143 14.2991 9.8648C13.4848 9.81505 11.5983 9.80884 10.8679 9.85236ZM14.1624 10.7508C16.3255 10.8845 18.3302 11.2264 20.08 11.7612C20.3348 11.8389 20.5493 11.9011 20.5524 11.9011C20.5648 11.9011 20.54 12.1466 20.484 12.5726C20.3535 13.5891 19.9308 14.6461 19.3123 15.5228C19.1445 15.7591 18.784 16.1943 18.6596 16.3124L18.5788 16.3839L18.3986 16.244C17.5812 15.6161 16.397 15.0192 15.3434 14.699C14.4017 14.4161 13.5532 14.2948 12.5151 14.2948C11.4771 14.2948 10.6255 14.4161 9.68998 14.699C8.62394 15.0223 7.44912 15.6161 6.63172 16.244L6.45146 16.3839L6.37065 16.3124C6.24322 16.1912 5.88269 15.756 5.72108 15.5228C4.98138 14.472 4.62707 13.4772 4.4841 12.0627C4.47478 11.9757 4.47167 11.9011 4.47788 11.9011C4.48099 11.9011 4.69544 11.8389 4.9503 11.7612C6.65969 11.2389 8.77934 10.872 10.7902 10.7539C11.4273 10.7166 13.5688 10.7135 14.1624 10.7508ZM13.1367 15.1964C14.4576 15.2959 15.6915 15.6627 16.8166 16.2876C17.146 16.471 17.8453 16.9186 17.8764 16.9653C17.8951 16.9964 17.4568 17.3135 17.1119 17.5217C15.7785 18.3238 14.2121 18.7404 12.5338 18.7404C10.5695 18.7404 8.83839 18.2088 7.37764 17.1611L7.13521 16.987L7.2067 16.9311C7.39318 16.7819 7.92775 16.443 8.28206 16.2502C9.75525 15.4451 11.4833 15.072 13.1367 15.1964Z" fill="#FFF"/>
</g>
</svg>
