<?xml version="1.0" standalone="no"?>
<!DOCTYPE svg PUBLIC "-//W3C//DTD SVG 20010904//EN"
 "http://www.w3.org/TR/2001/REC-SVG-20010904/DTD/svg10.dtd">
<svg version="1.0" xmlns="http://www.w3.org/2000/svg"
 width="920.000000pt" height="920.000000pt" viewBox="0 0 920.000000 920.000000"
 preserveAspectRatio="xMidYMid meet">
<metadata>
Created by potrace 1.16, written by Peter Selinger 2001-2019
</metadata>
<g transform="translate(0.000000,920.000000) scale(0.100000,-0.100000)"
fill="#000000" stroke="none">
<path d="M4235 8609 c-670 -66 -1279 -278 -1827 -635 -610 -398 -1126 -984
-1434 -1629 -145 -305 -223 -526 -300 -860 -37 -160 -65 -336 -84 -529 -13
-141 -13 -571 0 -712 40 -414 127 -772 281 -1159 57 -145 185 -399 282 -560
375 -627 967 -1179 1622 -1512 929 -472 2023 -566 3011 -259 960 298 1775 945
2287 1815 741 1257 734 2834 -17 4091 -333 557 -832 1058 -1381 1387 -379 227
-752 377 -1190 479 -160 37 -336 65 -529 84 -124 11 -600 11 -721 -1z m655
-284 c1062 -87 2009 -599 2665 -1440 443 -568 709 -1257 770 -1995 19 -221 19
-359 0 -580 -75 -904 -450 -1715 -1085 -2350 -632 -633 -1444 -1008 -2341
-1085 -302 -26 -600 -13 -915 39 -1281 213 -2369 1090 -2855 2303 -142 356
-222 697 -254 1093 -29 352 -8 689 66 1048 209 1022 863 1933 1769 2465 661
387 1428 564 2180 502z"/>
<path d="M2515 7022 c-88 -55 -94 -183 -11 -237 12 -8 96 -38 185 -65 319 -99
688 -263 901 -400 l84 -55 -189 -21 c-357 -41 -673 -90 -985 -155 -212 -44
-271 -63 -305 -99 -27 -28 -30 -38 -30 -95 0 -54 4 -67 25 -90 55 -59 91 -65
203 -36 226 60 750 148 1142 191 55 6 138 15 185 20 47 6 141 15 210 21 138
12 176 24 208 64 54 68 37 143 -52 229 -275 267 -699 499 -1241 679 -206 68
-282 79 -330 49z"/>
<path d="M6455 7005 c-570 -175 -1056 -432 -1333 -703 -85 -84 -101 -117 -87
-181 9 -43 49 -87 88 -100 18 -6 84 -15 147 -21 134 -12 387 -38 445 -45 445
-55 811 -117 1069 -181 54 -13 110 -24 123 -24 58 0 122 58 130 118 12 90 -27
142 -125 171 -233 68 -839 169 -1317 219 l-70 7 85 55 c205 132 580 300 870
390 198 60 221 71 247 109 44 65 24 162 -40 201 -46 28 -104 24 -232 -15z"/>
<path d="M4070 5449 c-789 -49 -1512 -177 -2105 -374 -228 -77 -235 -84 -235
-261 0 -373 122 -805 326 -1151 115 -194 230 -340 425 -540 508 -520 1289
-823 2124 -823 691 0 1338 208 1857 595 128 96 324 286 446 431 349 419 553
957 565 1489 3 168 -12 185 -238 260 -436 144 -1023 269 -1530 325 -226 24
-292 30 -531 45 -262 16 -869 18 -1104 4z m1060 -289 c696 -43 1341 -153 1904
-325 82 -25 151 -45 152 -45 4 0 -4 -79 -22 -216 -42 -327 -178 -667 -377
-949 -54 -76 -170 -216 -210 -254 l-26 -23 -58 45 c-263 202 -644 394 -983
497 -303 91 -576 130 -910 130 -334 0 -608 -39 -909 -130 -343 -104 -721 -295
-984 -497 l-58 -45 -26 23 c-41 39 -157 179 -209 254 -238 338 -352 658 -398
1113 -3 28 -4 52 -2 52 1 0 70 20 152 45 550 168 1232 286 1879 324 205 12
894 13 1085 1z m-330 -1430 c425 -32 822 -150 1184 -351 106 -59 331 -203 341
-218 6 -10 -135 -112 -246 -179 -429 -258 -933 -392 -1473 -392 -632 0 -1189
171 -1659 508 l-78 56 23 18 c60 48 232 157 346 219 474 259 1030 379 1562
339z"/>
</g>
</svg>
