<svg width="25" height="25" viewBox="0 0 25 25" fill="none" xmlns="http://www.w3.org/2000/svg">
<g id="Iconos">
<path id="Vector" d="M4.34717 2.50576V5.01156L4.83122 5.34799L5.31528 5.68442H12.526H19.7368L20.2209 5.34799L20.7049 5.01156V2.50576V-3.71933e-05H19.2027H17.7004V0.928037V1.85611H16.4486H15.1967V0.928037V-3.71933e-05H12.526H9.85539V0.928037V1.85611H8.60352H7.35165V0.928037V-3.71933e-05H5.84941H4.34717V2.50576Z" fill="#FFF"/>
<path id="Vector_2" d="M5.44729 6.21815C5.13015 6.42696 5.09677 6.8562 5.38053 7.05341C5.66428 7.25063 19.3848 7.25063 19.6685 7.05341C19.9523 6.8562 19.9189 6.42696 19.6018 6.21815C19.3848 6.05573 18.5001 6.03253 12.5245 6.03253C6.54894 6.03253 5.66428 6.05573 5.44729 6.21815Z" fill="#FFF"/>
<path id="Vector_3" d="M7.34985 8.31798C7.33316 10.0233 6.99933 13.956 6.76565 15.2669C6.41512 17.0767 5.99783 18.318 5.2634 19.5593C4.94626 20.1161 4.6792 20.6266 4.6792 20.673C4.6792 20.7194 8.21782 20.7658 12.5242 20.7658C16.8474 20.7658 20.3693 20.7194 20.3693 20.673C20.3693 20.6266 20.1022 20.1161 19.7684 19.5361C18.5666 17.4711 17.9824 14.6985 17.7654 10.0001L17.6486 7.54072H12.5076H7.34985V8.31798Z" fill="#FFF"/>
<path id="Vector_4" d="M3.27932 21.2995C2.96218 21.5084 2.9288 21.9376 3.21256 22.1348C3.49632 22.332 21.5566 22.332 21.8404 22.1348C22.1241 21.9376 22.0907 21.5084 21.7736 21.2995C21.5399 21.1371 20.4717 21.1139 12.5265 21.1139C4.58127 21.1139 3.51301 21.1371 3.27932 21.2995Z" fill="#FFF"/>
<path id="Vector_5" d="M1.69208 22.7842C0.740656 23.1439 0.57374 24.0255 1.32486 24.6172L1.80892 25H12.5249H23.2409L23.725 24.6172C24.4928 24.0255 24.2758 23.0742 23.291 22.761C22.6233 22.5522 2.2429 22.5754 1.69208 22.7842Z" fill="#FFF"/>
</g>
</svg>
