<svg width="26" height="25" viewBox="0 0 26 25" fill="none" xmlns="http://www.w3.org/2000/svg">
<g id="Iconos">
<path id="Vector" d="M17.4961 0.0155392C16.815 0.0820312 16.1977 0.347996 15.6762 0.803205L15.3622 1.07428L15.0429 0.931072C14.1862 0.557699 13.4731 0.409372 12.5205 0.409372C11.568 0.409372 10.8549 0.557699 9.99811 0.931072L9.67882 1.07428L9.36485 0.803205C9.00299 0.486094 8.46019 0.199669 8.01851 0.0871468C7.61939 -0.0100327 6.83181 -0.0100327 6.43269 0.0871468C5.36839 0.353111 4.46905 1.22261 4.19765 2.24044C4.09122 2.63427 4.09122 3.37079 4.19233 3.74416C4.46373 4.72107 5.23535 5.52408 6.20919 5.84119L6.48059 5.92814L6.52316 6.25548C6.64023 7.23751 6.6828 7.47278 6.81052 7.85127C6.9542 8.29625 7.26817 8.9407 7.49168 9.25782L7.63004 9.44706L7.40121 9.6363L7.17238 9.82555L4.53823 9.84089L1.90408 9.85624L1.54753 10.025C-0.357571 10.9252 -0.517217 13.9838 1.28146 15.0937C1.70718 15.3545 2.03179 15.4057 3.30364 15.4057H4.44244L4.40519 15.9172L4.36262 16.4286H4.54355C4.92138 16.4286 5.73557 16.6332 6.17194 16.8327C6.72006 17.0884 7.0287 17.2879 7.42782 17.6459L7.73114 17.9272V17.692C7.73114 16.9964 7.98126 16.0399 8.34844 15.3239C9.1307 13.8099 10.5037 12.8125 12.0309 12.6489C13.7179 12.4699 15.293 13.2268 16.3254 14.7101C16.8735 15.508 17.2194 16.4798 17.2886 17.426L17.3259 17.9068L17.6398 17.6306C18.0549 17.2572 18.3476 17.068 18.8691 16.8378C19.348 16.623 19.8802 16.4849 20.3644 16.4389L20.6784 16.4133L20.6412 15.9069L20.6039 15.4057H21.7374C23.0092 15.4057 23.3339 15.3545 23.7596 15.0937C24.7334 14.4902 25.2177 13.2115 24.9463 11.9533C24.8452 11.4981 24.7068 11.1809 24.4354 10.7922C24.1853 10.4393 23.9299 10.2347 23.4829 10.0199L23.137 9.85624L20.5134 9.84089L17.8846 9.82555L17.6558 9.64653L17.4323 9.46241L17.6611 9.09926C17.9325 8.6594 18.1826 8.07632 18.3263 7.53928C18.4327 7.14033 18.5604 6.07647 18.5072 5.99463C18.4913 5.96906 18.6083 5.9128 18.7573 5.86165C20.0664 5.45247 20.9285 4.32212 20.9285 3.01787C20.9285 2.16883 20.6305 1.463 20.0239 0.879925C19.3534 0.235472 18.4434 -0.0765247 17.4961 0.0155392ZM7.81097 1.76988C7.95997 1.83638 8.11962 1.93356 8.17283 1.98982C8.2633 2.09211 8.25798 2.10234 8.03447 2.34273C7.58746 2.82863 7.16174 3.49354 6.95952 4.01524C6.90631 4.14822 6.84245 4.27098 6.82116 4.28632C6.74666 4.32724 6.3848 4.12265 6.20919 3.93852C5.9644 3.69302 5.85797 3.45774 5.82604 3.09459C5.74089 2.07165 6.84777 1.33513 7.81097 1.76988ZM18.4008 1.76988C18.9489 2.01028 19.2629 2.52686 19.215 3.09459C19.1831 3.45774 19.0766 3.69302 18.8318 3.93852C18.6562 4.12265 18.2944 4.32724 18.2199 4.28632C18.1986 4.27098 18.1347 4.14822 18.0815 4.01524C17.8793 3.49354 17.4536 2.82863 17.0066 2.34273C16.7831 2.10234 16.7777 2.09211 16.8682 1.98982C17.1768 1.65736 17.9165 1.54995 18.4008 1.76988ZM10.3227 3.54469C10.509 3.61118 10.7484 3.826 10.8549 4.02036C11.0358 4.35793 10.9028 4.86428 10.5622 5.1149C10.2961 5.30926 9.80122 5.33484 9.54046 5.16605C9.16796 4.92054 8.99767 4.51648 9.10942 4.14822C9.26906 3.64187 9.8225 3.36056 10.3227 3.54469ZM15.474 3.60606C15.8624 3.81577 16.0487 4.23517 15.9316 4.61878C15.6496 5.51385 14.3352 5.49339 14.1276 4.58809C13.9626 3.84134 14.7928 3.23269 15.474 3.60606ZM13.1963 4.81314C13.8828 5.15071 13.8349 5.89745 13.1059 6.21457C12.6057 6.42938 11.8926 6.31174 11.5414 5.95372C11.2434 5.64683 11.3179 5.13025 11.6957 4.88986C12.1001 4.63412 12.7706 4.59832 13.1963 4.81314ZM11.2061 6.38847C11.552 6.73115 11.8553 6.83856 12.5205 6.83856C12.9888 6.83856 13.1218 6.8181 13.3507 6.72092C13.638 6.59817 13.9999 6.27083 14.1276 6.03044L14.2021 5.88211L14.4576 6.11739C15.1281 6.7465 15.1387 7.55462 14.4895 8.19907C13.9999 8.67474 13.356 8.91002 12.5205 8.91002C11.685 8.91002 11.0411 8.67474 10.5516 8.19907C9.90233 7.55462 9.91297 6.7465 10.5835 6.11739L10.8389 5.88211L10.9134 6.03044C10.956 6.10716 11.0837 6.27083 11.2061 6.38847ZM2.87259 11.0633C3.30364 11.2628 3.63357 11.7231 3.74 12.2806C3.98479 13.5849 2.81938 14.6692 1.72847 14.1475C0.706734 13.6565 0.541766 12.0249 1.43578 11.2628C1.8615 10.9048 2.36705 10.8331 2.87259 11.0633ZM23.0944 10.9815C24.4248 11.36 24.5791 13.5439 23.3126 14.1475C22.2217 14.6692 21.0562 13.5849 21.301 12.2806C21.4181 11.6617 21.8491 11.1349 22.36 10.9866C22.6793 10.8894 22.7698 10.8894 23.0944 10.9815Z" fill="#FFF"/>
<path id="Vector_2" d="M3.95324 17.5542C2.86233 17.6872 1.92042 18.4083 1.48405 19.4415C1.06365 20.4389 1.09026 21.3288 1.58516 22.6433C2.17585 24.2084 2.65479 24.7608 3.58605 24.9501C4.23528 25.083 5.09205 24.9501 6.16699 24.5562C7.75813 23.9629 8.41268 23.1752 8.29028 21.9886C8.22642 21.3288 7.76345 19.9581 7.40691 19.3546C6.68318 18.1424 5.24637 17.3905 3.95324 17.5542ZM5.79449 20.4491C6.39582 20.6179 6.86943 21.0833 6.98651 21.6255C7.06101 21.9682 7.02376 22.2086 6.83218 22.6024C6.28407 23.7123 4.59182 24.1624 3.5488 23.4719C2.30357 22.6433 2.87297 20.8787 4.52796 20.444C4.87918 20.3519 5.45391 20.3519 5.79449 20.4491Z" fill="#FFF"/>
<path id="Vector_3" d="M20.4772 17.5338C19.5885 17.636 18.8914 17.9685 18.2315 18.6181C17.6727 19.1602 17.3375 19.7945 16.9596 21.0424C16.7947 21.5795 16.7628 21.7483 16.7628 22.2086C16.7574 22.94 16.8692 23.2264 17.3694 23.697C18.2421 24.5256 20.3548 25.1751 21.4563 24.9501C22.3876 24.7608 22.8825 24.188 23.4572 22.6382C23.9521 21.3186 23.9787 20.4338 23.5583 19.4415C23.1752 18.5311 22.3184 17.7946 21.435 17.6156C21.1051 17.5491 20.6847 17.5133 20.4772 17.5338ZM20.4878 20.4389C20.9082 20.5463 21.2222 20.71 21.5308 20.9811C22.792 22.0858 22.0843 23.789 20.3654 23.7942C19.3863 23.7942 18.5721 23.3338 18.1942 22.5717C17.6568 21.4772 18.4763 20.3826 19.8386 20.3724C20.0461 20.3673 20.3388 20.4031 20.4878 20.4389Z" fill="#FFF"/>
<path id="Vector_4" d="M9.43564 22.4133C9.43564 23.0066 9.26536 23.518 8.89285 24.0346L8.73853 24.2494L8.88753 24.2852C8.96735 24.3006 9.12168 24.3364 9.22278 24.362C10.6702 24.7047 14.3102 24.7047 15.8215 24.3569C15.9226 24.3364 16.0769 24.3006 16.1567 24.2852L16.3111 24.2494L16.178 24.0858C15.8215 23.6357 15.6086 23.0168 15.6086 22.4235V22.0501L15.2255 22.3365C14.7678 22.6843 14.0175 23.0424 13.5066 23.1651C13.0011 23.2828 12.0379 23.2777 11.5376 23.16C11.0161 23.0321 10.2711 22.6741 9.81879 22.3365L9.43564 22.0501V22.4133Z" fill="#FFF"/>
</g>
</svg>
