<svg width="26" height="21" viewBox="0 0 26 21" fill="none" xmlns="http://www.w3.org/2000/svg">
<g id="Moto">
<path id="Vector" d="M11.8061 0.161996C11.0042 0.38077 10.5246 0.753495 10.2494 1.3693C10.045 1.82306 10.0136 2.05803 10.1629 2.05803C10.2101 2.05803 10.556 2.00132 10.9256 1.93649C11.2951 1.87167 11.6017 1.81495 11.6174 1.81495C11.6253 1.81495 11.6331 2.06614 11.6331 2.37404C11.6331 3.01416 11.6646 2.98175 10.8862 3.07088C10.0057 3.16811 10.0607 3.11139 10.0607 3.93787V4.66711L10.3045 4.6185C10.4381 4.59419 10.6347 4.56988 10.729 4.56988C10.8234 4.56988 11.0671 4.44024 11.2636 4.28629C11.9398 3.75151 12.3958 3.56514 13.009 3.56514C13.4021 3.56514 13.6694 3.61376 13.9288 3.7353L14.2984 3.90546L14.4792 3.53273C14.6207 3.23293 14.66 3.02226 14.66 2.50369C14.6522 1.93649 14.6207 1.79064 14.4084 1.3612C14.2669 1.08571 14.0075 0.73729 13.8345 0.575235C13.3392 0.145791 12.498 -0.0324697 11.8061 0.161996Z" fill="#FFF"/>
<path id="Vector_2" d="M12.4368 3.92961C12.2874 3.97012 11.1002 4.84522 9.78727 5.86616L7.39722 7.72979L7.34219 7.35707C7.30288 7.06537 7.26357 7.00054 7.16136 7.04106C7.0906 7.07347 6.61888 7.25173 6.11571 7.44619C4.504 8.062 3.67063 8.61299 3.33256 9.27741C3.04953 9.8446 3.10456 10.7521 3.46621 11.6272L3.62346 11.9999L4.25242 12.0566C5.52606 12.162 6.6975 12.7292 7.42867 13.5881C7.89253 14.1309 8.44287 15.2734 8.663 16.1566C8.85955 16.975 9.07969 17.2586 9.7401 17.5665C10.77 18.0365 11.9022 18.1823 14.6539 18.1823H16.5486L16.525 17.0884C16.4778 15.3058 16.8002 14.2525 17.6571 13.3774C18.4984 12.5104 19.6384 12.1053 21.4152 12.0323C22.4844 11.9837 22.508 11.9756 22.6652 11.7649C22.8539 11.5057 22.8854 10.9223 22.7281 10.6225L22.6181 10.4037L21.1164 10.3956C18.3097 10.3713 18.577 10.4037 18.4512 10.0796C18.3647 9.85271 17.5549 8.6454 17.2955 8.3456C17.2562 8.30508 16.6351 8.75884 15.9118 9.34223L14.5988 10.4037H12.539C10.5892 10.4037 10.4634 10.4118 10.2747 10.5657C10.1646 10.6549 10.031 10.8574 9.98382 11.0195C9.9052 11.2545 9.86589 11.295 9.72437 11.2464C9.44134 11.1572 8.83597 10.8088 8.53721 10.5495C8.17556 10.2416 7.73529 9.59342 7.84535 9.52049C7.88466 9.49619 8.77307 8.79935 9.81872 7.97287C10.8644 7.14639 11.7449 6.46576 11.7764 6.44956C11.8157 6.44146 12.4053 7.25173 13.0972 8.24837C13.8126 9.29362 14.3865 10.0553 14.4416 10.0391C14.4966 10.0229 15.1098 9.56101 15.8017 9.02623C16.6272 8.38611 17.0439 8.01339 17.0046 7.94856C16.808 7.60015 14.8425 4.94245 14.5516 4.62644C14.3551 4.40767 14.0563 4.15649 13.8834 4.06736C13.5217 3.88099 12.8141 3.80807 12.4368 3.92961Z" fill="#FFF"/>
<path id="Vector_3" d="M3.37876 12.5187C3.1429 12.5592 2.66332 12.7375 2.31739 12.9076C1.09878 13.5234 0.257547 14.7307 0.0609966 16.1163C-0.31638 18.8388 2.03436 21.2696 4.66813 20.8726C6.70439 20.5647 8.20604 18.7902 8.20604 16.6835C8.20604 14.0744 5.89461 12.073 3.37876 12.5187ZM4.95117 14.0663C5.35213 14.1879 6.00468 14.6659 6.24054 15.0062C6.76729 15.7922 6.92453 16.7969 6.64936 17.5991C6.2484 18.774 4.98261 19.5924 3.8269 19.4384C1.62554 19.1467 0.658509 16.408 2.18374 14.7956C2.92277 14.0177 3.90552 13.7584 4.95117 14.0663Z" fill="#FFF"/>
<path id="Vector_4" d="M20.5562 12.4779C20.4697 12.4941 20.2024 12.5508 19.9665 12.5994C19.3061 12.7372 18.5513 13.1828 18.0167 13.7581C16.4365 15.4516 16.4443 18.0363 18.0403 19.6812C19.8958 21.5853 22.9384 21.245 24.385 18.9601C25.1947 17.6717 25.2341 15.8972 24.4793 14.5684C23.9919 13.7095 23.0956 12.964 22.215 12.6804C21.7197 12.5265 20.8313 12.4131 20.5562 12.4779ZM22.1364 14.2362C22.5846 14.4711 23.0956 15.0059 23.3629 15.5245C23.5201 15.8243 23.5437 15.9945 23.5437 16.6832C23.5437 17.38 23.5201 17.5421 23.355 17.8581C23.0641 18.4253 22.8755 18.6522 22.4509 18.952C21.0515 19.9405 19.2118 19.3976 18.4885 17.7852C18.1897 17.1369 18.1976 16.2294 18.4885 15.5731C19.1331 14.147 20.7999 13.5393 22.1364 14.2362Z" fill="#FFF"/>
</g>
</svg>
