<svg width="26" height="17" viewBox="0 0 26 17" fill="none" xmlns="http://www.w3.org/2000/svg">
<g id="Group">
<path id="Vector" d="M3.66234 0.251734C3.23654 0.453819 3.13865 0.66654 3.05056 1.60783L2.97714 2.35235L2.56113 2.78311C2.11575 3.23514 1.79273 3.71908 1.58227 4.23493C1.43055 4.60719 1.26414 5.31981 1.26414 5.60166C1.26414 5.71334 0.98517 7.39915 0.64257 9.35086C0.0797275 12.5576 0.0209961 12.9618 0.0209961 13.4883C0.0209961 14.5147 0.324442 15.2698 1.01943 15.9399C1.65079 16.5461 2.36046 16.8333 3.2708 16.8333C3.71618 16.8333 3.83854 16.812 4.20071 16.6738C4.7293 16.4717 5.09637 16.2058 5.47812 15.7591C5.80115 15.3762 6.01649 14.9295 6.77021 13.0894C6.98067 12.5789 7.15686 12.1481 7.16665 12.1375C7.17644 12.1269 7.26943 12.18 7.3771 12.2545C8.01336 12.7118 8.86497 12.8767 9.57953 12.6853C10.622 12.4034 11.4687 11.4887 11.689 10.4145L11.7526 10.1113H12.521H13.2894L13.3481 10.4145C13.4509 10.9037 13.725 11.4249 14.1116 11.845C15.0416 12.8661 16.4511 13.0575 17.5768 12.3077C17.7334 12.2066 17.8656 12.1322 17.8753 12.1375C17.8802 12.1481 18.1592 12.8182 18.492 13.6212C19.1576 15.222 19.3338 15.5464 19.7596 15.9771C20.1169 16.3334 20.3812 16.5036 20.8706 16.6897C21.1986 16.812 21.3356 16.8333 21.7712 16.8333C22.6815 16.8333 23.3912 16.5461 24.0226 15.9399C24.7176 15.2645 25.021 14.5147 25.021 13.4883C25.021 12.9618 24.9623 12.5629 24.419 9.47318C24.0911 7.58528 23.8023 5.85161 23.7778 5.61761C23.6653 4.45297 23.2737 3.59677 22.4809 2.78311L22.0648 2.35235L21.9914 1.60783C21.918 0.842033 21.8642 0.650585 21.6635 0.4485C21.4041 0.1826 21.2867 0.166645 19.7547 0.166645C18.4676 0.166645 18.3011 0.177282 18.125 0.267689C17.7579 0.453819 17.5964 0.751627 17.5425 1.33661C17.523 1.52806 17.4985 1.79396 17.4838 1.93223L17.4544 2.18749H12.521H7.58756L7.56309 1.95882C7.54351 1.8365 7.51904 1.56528 7.49946 1.3632C7.44562 0.751627 7.28901 0.453819 6.91704 0.267689C6.74085 0.177282 6.57934 0.166645 5.27746 0.171963C4.09793 0.171963 3.80428 0.187918 3.66234 0.251734ZM6.64296 1.09198C6.71148 1.18239 6.77511 1.86841 6.71638 1.86841C6.6919 1.86841 6.53039 1.81523 6.3542 1.75142C5.87945 1.58124 4.77335 1.58124 4.23497 1.7461C4.02941 1.81523 3.84343 1.86841 3.83364 1.86841C3.78959 1.86841 3.8679 1.1558 3.92174 1.08134C3.99515 0.980302 6.56465 0.990938 6.64296 1.09198ZM21.1203 1.08134C21.1741 1.1558 21.2524 1.86841 21.2083 1.86841C21.1986 1.86841 21.0126 1.81523 20.807 1.7461C20.2686 1.58124 19.1625 1.58124 18.6878 1.75142C18.5116 1.81523 18.3501 1.86841 18.3256 1.86841C18.2669 1.86841 18.3305 1.18239 18.399 1.09198C18.4773 0.990938 21.0468 0.980302 21.1203 1.08134ZM5.98223 2.53316C7.08345 2.78843 8.07209 3.77758 8.4049 4.9635C8.53216 5.42085 8.5762 5.87288 8.53705 6.293L8.50279 6.63336L8.16998 6.72376C7.15197 7.01093 6.31994 8.03199 6.13885 9.21791C6.11927 9.32427 6.07033 9.42531 6.02139 9.44659C5.8354 9.53167 4.95933 9.53699 4.59715 9.4519C3.67213 9.23918 2.80584 8.51062 2.39962 7.61187C2.12554 7.01093 2.04234 6.63336 2.04234 5.98987C2.04234 5.34639 2.12554 4.9635 2.39472 4.38915C2.93309 3.20855 4.03431 2.46935 5.25299 2.45871C5.46833 2.45871 5.79625 2.49062 5.98223 2.53316ZM20.7777 2.63421C21.2769 2.8097 21.8201 3.19792 22.1823 3.62868C22.4809 3.9903 22.8088 4.66037 22.9213 5.13899C23.0192 5.5538 23.0192 6.42595 22.9213 6.84076C22.6179 8.13304 21.6244 9.18069 20.4448 9.4519C20.0827 9.53699 19.2066 9.53167 19.0206 9.44659C18.9717 9.42531 18.9227 9.32427 18.9031 9.21791C18.7221 8.03199 17.89 7.01093 16.872 6.72376L16.5392 6.63336L16.5049 6.34618C16.4315 5.71866 16.593 4.89436 16.9112 4.26152C17.1852 3.7244 17.7921 3.10219 18.3109 2.83097C18.8738 2.53316 19.2311 2.45339 19.8624 2.47467C20.2491 2.49062 20.4742 2.52785 20.7777 2.63421ZM16.6616 3.15537C15.9617 4.19238 15.7365 4.86777 15.7316 5.95797L15.7219 6.62272L15.438 6.69185C14.4347 6.93648 13.539 7.90968 13.3432 8.96265L13.2894 9.26046H12.521H11.7526L11.6988 8.96265C11.503 7.90968 10.6122 6.9418 9.604 6.69185L9.31524 6.6174L9.32992 6.16537C9.36908 5.12304 9.07542 4.18707 8.38043 3.15537L8.30212 3.03837H12.521H16.7399L16.6616 3.15537ZM9.49144 7.53742C9.89277 7.67037 10.0983 7.798 10.3871 8.11176C11.1946 8.99455 11.1995 10.3772 10.392 11.2547C9.58932 12.1215 8.30212 12.1269 7.50925 11.2653C7.05898 10.7814 6.8632 10.223 6.90236 9.53699C6.97577 8.13835 8.26297 7.14388 9.49144 7.53742ZM16.6077 7.52678C17.9047 7.89904 18.5214 9.43595 17.9047 10.7442C17.846 10.8771 17.6845 11.1058 17.5425 11.2547C16.7399 12.1269 15.4527 12.1269 14.6549 11.26C14.0284 10.574 13.8718 9.55826 14.2634 8.68611C14.4053 8.37235 14.8262 7.87777 15.0758 7.7395C15.5506 7.46828 16.133 7.38851 16.6077 7.52678ZM2.09128 8.64888C2.6688 9.48913 3.52041 10.0741 4.50416 10.2975C4.87123 10.3826 5.62006 10.3985 5.94797 10.3294L6.14864 10.2868L6.20248 10.5155C6.23184 10.6378 6.32973 10.8984 6.42272 11.0899L6.59402 11.4462L5.98223 12.9193C5.64453 13.7276 5.30193 14.5253 5.21873 14.6902C4.77824 15.5942 3.80428 16.1207 2.87926 15.9665C1.72421 15.7697 0.941121 14.9348 0.808976 13.7489C0.760033 13.3234 0.764927 13.2756 1.20541 10.7176C1.45502 9.28705 1.65569 8.09049 1.66058 8.0639C1.66058 8.03199 1.68995 8.05858 1.734 8.11708C1.77315 8.17558 1.93466 8.41489 2.09128 8.64888ZM23.8317 10.691C24.2771 13.2756 24.282 13.3234 24.233 13.7489C24.1009 14.9348 23.3178 15.7697 22.1627 15.9665C21.2328 16.1207 20.2638 15.5942 19.8233 14.6902C19.7401 14.5253 19.3975 13.7276 19.0598 12.9193L18.448 11.4462L18.6193 11.0899C18.7123 10.8984 18.8102 10.6378 18.8395 10.5155L18.8934 10.2868L19.094 10.3294C19.417 10.3985 20.1169 10.3826 20.5085 10.3028C21.5803 10.0794 22.5102 9.40404 23.122 8.40425C23.2444 8.19685 23.352 8.03731 23.3618 8.04795C23.3667 8.05858 23.5772 9.2445 23.8317 10.691Z" fill="#FFF"/>
<path id="Vector_2" d="M4.4743 3.26137C4.41557 3.34646 4.396 3.51132 4.396 3.86231C4.396 4.12289 4.41068 4.39411 4.42536 4.45793C4.45962 4.60151 5.13014 5.16522 5.26228 5.16522C5.36017 5.16522 5.92791 4.71319 6.05026 4.54301C6.08942 4.48452 6.109 4.25584 6.109 3.8889C6.109 3.1231 6.13347 3.14438 5.23781 3.14438C4.58198 3.14438 4.54282 3.14969 4.4743 3.26137ZM5.57062 3.96335C5.57062 4.21862 5.55594 4.26648 5.4189 4.38879L5.26718 4.53238L5.11056 4.40475C4.97842 4.28775 4.95884 4.23989 4.94416 3.97399L4.92947 3.67618H5.2525H5.57062V3.96335Z" fill="#FFF"/>
<path id="Vector_3" d="M2.9134 4.94204C2.84488 5.02181 2.8302 5.1654 2.8302 5.7557C2.8302 6.27686 2.84978 6.50022 2.89872 6.57467C2.95745 6.66508 3.22174 6.68635 4.08803 6.65444C4.19081 6.65444 4.69003 5.9046 4.69003 5.7557C4.69003 5.66529 4.58235 5.47916 4.39637 5.22921L4.10271 4.84632H3.54477C3.07002 4.84632 2.98192 4.86227 2.9134 4.94204ZM3.99993 5.59084C4.1125 5.76101 4.10761 5.80356 3.9412 6.00033C3.86289 6.09605 3.78948 6.12264 3.6035 6.12264H3.36857V5.77697V5.4313H3.62797C3.86289 5.4313 3.90205 5.44725 3.99993 5.59084Z" fill="#FFF"/>
<path id="Vector_4" d="M6.41241 4.88418C6.30474 4.93204 5.81531 5.64997 5.81531 5.76165C5.81531 5.90523 6.30474 6.59658 6.42709 6.6338C6.48093 6.64976 6.75012 6.66571 7.0193 6.67103C7.37658 6.67635 7.5332 6.66039 7.59193 6.60721C7.66045 6.54871 7.67514 6.42108 7.67514 5.7776C7.67514 4.82036 7.69471 4.84695 6.98504 4.85227C6.70607 4.85227 6.44667 4.86822 6.41241 4.88418ZM7.18571 5.7776V6.12327H6.92142C6.67181 6.12327 6.64244 6.10732 6.52498 5.93714L6.39283 5.75633L6.5103 5.59679C6.61308 5.4532 6.65223 5.43725 6.90673 5.43725L7.18571 5.43193V5.7776Z" fill="#FFF"/>
<path id="Vector_5" d="M5.02411 6.49569C4.90664 6.58078 4.72556 6.72968 4.61788 6.83072L4.42211 7.01685V7.63906C4.42211 8.43676 4.39274 8.41017 5.2835 8.41017C6.12043 8.41017 6.11064 8.42081 6.11064 7.6497C6.11064 7.36252 6.09106 7.08067 6.06169 7.02749C6.00786 6.92113 5.44501 6.42655 5.31776 6.37337C5.26882 6.35742 5.15136 6.40528 5.02411 6.49569ZM5.42544 7.14449C5.55758 7.24553 5.57227 7.29339 5.57227 7.54334V7.82519H5.25414H4.93601V7.55929C4.93601 7.33062 4.95559 7.2668 5.07305 7.16044C5.23456 7.0009 5.24924 7.0009 5.42544 7.14449Z" fill="#FFF"/>
<path id="Vector_6" d="M19.5287 3.30447C18.6135 3.54378 18.5156 4.95306 19.3819 5.35191C19.9643 5.61249 20.6739 5.14982 20.7327 4.46912C20.7963 3.74055 20.1747 3.1343 19.5287 3.30447ZM20.0964 4.02241C20.3509 4.34149 20.1503 4.8467 19.7685 4.8467C19.4112 4.8467 19.1959 4.48507 19.3476 4.1394C19.3916 4.03836 19.4748 3.932 19.5336 3.89477C19.7 3.80437 19.9692 3.86818 20.0964 4.02241Z" fill="#FFF"/>
<path id="Vector_7" d="M18.0122 4.95275C17.3563 5.12293 17.0529 5.97913 17.4347 6.60133C17.5864 6.8566 17.9681 7.07996 18.252 7.07996C18.5114 7.07996 18.898 6.84596 19.0596 6.5907C19.1819 6.39925 19.2015 6.31948 19.2015 5.99508C19.2015 5.68132 19.1819 5.58559 19.0791 5.43137C19.0155 5.33033 18.9274 5.21333 18.8834 5.17611C18.6533 4.9687 18.296 4.87298 18.0122 4.95275ZM18.5408 5.62814C18.7121 5.793 18.7463 6.03231 18.6386 6.25035C18.5114 6.51625 18.1394 6.57474 17.9388 6.36202C17.7724 6.17589 17.7381 5.99508 17.8311 5.78236C17.973 5.46328 18.296 5.39414 18.5408 5.62814Z" fill="#FFF"/>
<path id="Vector_8" d="M20.9682 4.97946C20.5327 5.14963 20.2977 5.50594 20.2977 5.98456C20.2977 6.92053 21.2619 7.40979 21.9031 6.79822C22.3386 6.3781 22.3729 5.70803 21.9765 5.25599C21.7122 4.95287 21.306 4.84119 20.9682 4.97946ZM21.58 5.63889C21.9667 6.06433 21.4724 6.73972 21.0123 6.41C20.9487 6.36214 20.8704 6.24514 20.841 6.1441C20.6893 5.64421 21.2374 5.26663 21.58 5.63889Z" fill="#FFF"/>
<path id="Vector_9" d="M19.4512 6.62824C19.1722 6.7346 19.0254 6.86755 18.8982 7.13345C18.58 7.78757 18.9373 8.56932 19.6225 8.70227C20.0092 8.78204 20.4741 8.49487 20.6503 8.06411C20.895 7.48444 20.5867 6.78246 20.0043 6.60165C19.7889 6.53252 19.6812 6.53783 19.4512 6.62824ZM20.0532 7.27172C20.1805 7.3834 20.2049 7.44722 20.2049 7.63866C20.2049 7.83011 20.1805 7.89393 20.0532 8.00561C19.7987 8.2396 19.4267 8.13856 19.3289 7.80884C19.1722 7.30363 19.6812 6.93137 20.0532 7.27172Z" fill="#FFF"/>
<path id="Vector_10" d="M10.5618 5.857C10.4395 5.98995 10.4346 6.13353 10.552 6.24521C10.6597 6.35157 11.2862 6.37285 11.4477 6.28244C11.5798 6.20267 11.5701 5.94209 11.433 5.83573C11.2617 5.70278 10.6891 5.71873 10.5618 5.857Z" fill="#FFF"/>
<path id="Vector_11" d="M13.6061 5.83574C13.469 5.9421 13.4592 6.20268 13.5914 6.28245C13.6452 6.30904 13.8508 6.33563 14.0514 6.33563C14.3402 6.33563 14.4283 6.31436 14.4919 6.23991C14.5996 6.10696 14.5947 5.98464 14.4772 5.85701C14.35 5.71874 13.7774 5.70279 13.6061 5.83574Z" fill="#FFF"/>
<path id="Vector_12" d="M8.34704 8.00526C7.92613 8.1967 7.65694 8.4626 7.47096 8.87741C7.32413 9.19117 7.30945 9.28158 7.30945 9.68575C7.30945 10.2335 7.45138 10.6111 7.78419 10.9674C8.1219 11.3237 8.44982 11.4673 8.94903 11.4673C9.29653 11.4673 9.4091 11.446 9.63423 11.329C10.6816 10.7866 10.9312 9.29753 10.1188 8.41474C9.65381 7.90953 8.92456 7.73935 8.34704 8.00526ZM9.47762 8.59024C10.1481 8.96782 10.2803 9.99951 9.72722 10.5739C9.08607 11.2333 7.98975 10.861 7.82824 9.92506C7.65205 8.90932 8.6309 8.11162 9.47762 8.59024Z" fill="#FFF"/>
<path id="Vector_13" d="M15.4964 7.99992C14.2435 8.57427 14.0624 10.3611 15.1734 11.1695C16.025 11.797 17.1653 11.4513 17.6058 10.4356C17.7135 10.1856 17.7331 10.0633 17.7331 9.68573C17.7331 9.1433 17.596 8.76572 17.2681 8.40941C16.8129 7.91483 16.0641 7.73934 15.4964 7.99992ZM16.7249 8.64872C17.4443 9.16989 17.3856 10.3558 16.6221 10.7706C15.8488 11.1907 14.9678 10.6164 14.9678 9.68573C14.9678 8.7019 15.9711 8.1116 16.7249 8.64872Z" fill="#FFF"/>
</g>
</svg>
