<svg width="25" height="25" viewBox="0 0 25 25" fill="none" xmlns="http://www.w3.org/2000/svg">
<g id="Iconos">
<path id="Vector" d="M11.4989 0.0295792C7.67877 0.395191 4.24762 2.42582 2.13806 5.56316C1.14063 7.04536 0.497286 8.63627 0.183096 10.405C0.0135329 11.3734 -0.0313514 12.9297 0.0883401 13.9327C0.362633 16.2696 1.32515 18.5522 2.79636 20.3605C4.39723 22.3269 6.56664 23.7746 9.01034 24.5058C10.302 24.8912 11.1399 25.0048 12.7108 24.9998C13.7631 24.9998 14.0573 24.9801 14.6009 24.8912C16.496 24.5651 18.0919 23.9524 19.603 22.9593C20.2464 22.5295 21.0393 21.9119 21.0393 21.8329C21.0393 21.8082 19.0694 19.8022 16.6656 17.3813L12.2919 12.9791L13.8229 11.4772C14.6658 10.6521 16.7803 8.5918 18.5208 6.89714C20.2613 5.20249 21.6877 3.79933 21.6877 3.78451C21.6877 3.76969 21.4682 3.55724 21.2039 3.30526C19.3986 1.62542 17.0297 0.498945 14.5062 0.123453C13.7581 0.00981712 12.2071 -0.0346489 11.4989 0.0295792ZM13.813 4.25387C14.1321 4.39221 14.4264 4.67877 14.586 4.99992C14.6857 5.20249 14.7057 5.31612 14.7057 5.68667C14.7057 6.07205 14.6857 6.16592 14.571 6.37837C14.4164 6.67481 14.1371 6.94161 13.8329 7.09971C13.6434 7.19853 13.5337 7.21829 13.1596 7.21829C12.7706 7.21829 12.6759 7.19853 12.4565 7.08489C12.1223 6.91196 11.7682 6.51671 11.6635 6.20051C11.2196 4.8764 12.5363 3.68569 13.813 4.25387Z" fill="#FFF"/>
</g>
</svg>
