<svg width="25" height="25" viewBox="0 0 25 25" fill="none" xmlns="http://www.w3.org/2000/svg">
<g id="Iconos">
<path id="Vector" d="M11.2023 0.132826C10.3473 0.278248 9.83013 0.44306 9.02795 0.811462C5.54477 2.4305 2.66324 6.10483 2.16715 9.56587C1.58662 13.531 5.12257 20.7731 9.0385 23.6621C10.1362 24.4668 11.5189 25 12.5217 25C15.7621 25 19.8997 20.5598 22.0318 14.8108C23.0767 11.9993 23.2034 10.0797 22.4857 8.07287C21.0607 4.04953 17.2292 0.607872 13.5983 0.0940475C12.6694 -0.0416794 12.1417 -0.0319843 11.2023 0.132826ZM13.63 1.97484C14.7488 2.2366 16.1843 3.04127 17.0181 3.88472C17.7992 4.66999 18.5486 5.92063 18.8442 6.92888C18.9392 7.23912 19.0553 7.38454 19.4247 7.59783C20.2796 8.09226 21.0713 9.34289 21.0713 10.196C21.0713 10.7099 20.7652 11.6406 20.4802 11.9799C20.3324 12.1544 19.7941 12.5616 19.2875 12.8718C18.2742 13.502 17.9153 13.8413 17.5459 14.5199C17.0498 15.4021 16.2793 17.2345 15.5299 19.2801C14.4955 22.1206 14.1577 22.6829 13.3239 23.0513C12.7539 23.3034 12.2895 23.3034 11.7195 23.0513C10.9067 22.6926 10.474 21.9655 9.56625 19.4255C8.98572 17.7968 7.95133 15.3246 7.50801 14.5393C7.12803 13.8316 6.77972 13.502 5.74532 12.8718C4.67926 12.2029 4.34149 11.8054 4.17261 10.991C3.89818 9.62404 4.53149 8.22799 5.71365 7.58813C6.11475 7.37485 6.18863 7.28759 6.29418 6.84163C6.86416 4.62152 8.95406 2.58561 11.2551 2.01362C12.11 1.80033 12.8278 1.79064 13.63 1.97484Z" fill="#FFF"/>
<path id="Vector_2" d="M14.2003 5.74647C13.7781 5.94037 13.662 6.2603 13.7254 7.14252C13.8203 8.56766 14.6331 10.2643 15.5303 10.8847C16.3641 11.4664 17.293 11.573 17.979 11.1659C18.5596 10.8265 18.8023 10.4097 18.7179 9.88615C18.644 9.36263 18.4962 9.21721 17.578 8.76156C16.6913 8.3059 16.1319 7.78238 15.678 6.94863C15.0553 5.80464 14.6964 5.5138 14.2003 5.74647Z" fill="#FFF"/>
<path id="Vector_3" d="M10.3397 5.81414C10.0864 5.90139 9.83307 6.21162 9.34753 7.06477C8.87256 7.89852 8.17592 8.52868 7.2893 8.92617C6.49767 9.28488 6.29712 9.51755 6.29712 10.0895C6.29712 10.7197 7.15208 11.4274 7.91205 11.4274C8.97811 11.4274 10.0125 10.7003 10.6564 9.48847C11.7013 7.53981 11.5219 5.41665 10.3397 5.81414Z" fill="#FFF"/>
<path id="Vector_4" d="M12.2254 9.9927C11.856 10.5744 11.5815 11.0785 11.3599 11.602C10.9588 12.5618 11.1277 12.7169 12.0037 12.1934L12.5104 11.8929L13.0803 12.1934C13.8614 12.6006 13.9353 12.5909 13.8614 12.048C13.7875 11.3887 12.8165 9.68246 12.5209 9.68246C12.4682 9.68246 12.3415 9.82788 12.2254 9.9927Z" fill="#FFF"/>
<path id="Vector_5" d="M11.5181 13.5992C10.7265 13.9191 10.6421 14.2972 10.9798 16.1392C11.1276 16.9342 11.2965 18.146 11.3704 18.8441C11.6237 21.4617 12.2148 22.5863 12.9536 21.8301C13.2914 21.4714 13.5236 20.5794 13.6819 18.941C13.7453 18.3012 13.9141 17.2056 14.0619 16.5173C14.368 15.1116 14.3469 14.5977 13.9986 14.1421C13.5342 13.5507 12.3098 13.2792 11.5181 13.5992Z" fill="#FFF"/>
</g>
</svg>
