<svg width="25" height="25" viewBox="0 0 25 25" fill="none" xmlns="http://www.w3.org/2000/svg">
<g id="Iconos">
<path id="Vector" d="M12.2967 0.0225344C12.1159 0.0609789 11.8949 0.2325 11.8467 0.365576C11.8226 0.427679 11.8025 0.75002 11.8025 1.08419V1.69043L10.4084 1.90926C9.63698 2.03051 8.99013 2.13402 8.96603 2.13993C8.9379 2.1488 8.90576 2.10444 8.88969 2.03938C8.83344 1.8028 8.60444 1.6372 8.28302 1.59875C8.1424 1.58397 7.9375 1.62537 6.93709 1.86786C6.28622 2.0246 5.68759 2.18725 5.60723 2.22569C5.43849 2.30554 5.34207 2.42383 5.30189 2.60126L5.27377 2.72251L3.72695 2.96501C2.8752 3.09808 2.11987 3.23412 2.04354 3.26073C1.86676 3.33171 1.72614 3.4914 1.694 3.66292C1.64177 3.92907 1.92301 4.19227 2.30067 4.23367C2.41718 4.2455 2.83904 4.19227 3.86355 4.02666C4.63495 3.90541 5.27778 3.80487 5.29787 3.80487C5.326 3.80487 5.33805 3.88471 5.41439 4.66247C5.50277 5.52895 5.67554 6.62905 5.90053 7.75281C6.14159 8.95345 6.5313 10.5504 6.59559 10.5947C6.66791 10.6509 8.68077 10.9141 9.81376 11.0176C10.9709 11.1241 11.4851 11.1507 12.5257 11.1507C13.5542 11.1507 14.0645 11.127 15.2176 11.0206C16.4229 10.9082 18.3835 10.6509 18.4558 10.5947C18.4799 10.577 18.5402 10.4025 18.5884 10.2073C19.1469 7.99826 19.5004 6.07604 19.6571 4.44363C19.6933 4.10355 19.7254 3.81965 19.7335 3.81374C19.7415 3.80782 20.3964 3.90246 21.1838 4.02666C22.7065 4.2662 22.7829 4.27211 23.04 4.15678C23.4619 3.96456 23.4579 3.46774 23.036 3.27256C22.9476 3.23412 22.3731 3.13061 21.3405 2.96796L19.7776 2.71955L19.7495 2.59831C19.7134 2.44157 19.625 2.31737 19.4924 2.24048C19.3759 2.17246 17.0135 1.58692 16.8528 1.58692C16.5354 1.58692 16.2059 1.79985 16.1537 2.03643C16.1416 2.10149 16.1135 2.14585 16.0854 2.13993C16.0613 2.13402 15.4144 2.03051 14.6471 1.91222L13.2529 1.69339L13.2409 1.028C13.2288 0.389235 13.2248 0.353747 13.1364 0.250243C12.9677 0.0521069 12.6061 -0.04844 12.2967 0.0225344ZM14.3256 2.94431C15.2377 3.08921 15.993 3.21342 16.001 3.21933C16.0251 3.23707 15.8323 3.92611 15.6997 4.29873C15.543 4.72753 15.3501 5.11493 15.097 5.50529C14.5747 6.30671 13.719 6.98983 12.8552 7.29147L12.5659 7.39498L12.3931 7.33288C11.5293 7.02236 10.5691 6.09674 9.94233 4.97298C9.64502 4.44068 9.14682 3.23707 9.20307 3.19567C9.23923 3.1661 12.5096 2.66041 12.586 2.67224C12.6302 2.67815 13.4136 2.80236 14.3256 2.94431Z" fill="#FFF"/>
<path id="Vector_2" d="M6.28406 12.2924C5.29168 14.8889 4.21896 17.9171 3.51185 20.0996C2.89312 22.0188 2.38287 23.8346 2.41501 24.012C2.44314 24.1569 2.60786 24.3432 2.76857 24.4024C3.08597 24.5266 5.74568 24.778 7.88712 24.8903C9.73927 24.985 13.1141 25.0293 14.898 24.979C17.3408 24.9081 20.0165 24.7247 21.7241 24.5059C22.0575 24.4645 22.2263 24.426 22.3388 24.3728C22.5075 24.29 22.6481 24.1067 22.6522 23.9677C22.6522 23.8139 22.1781 22.1016 21.7883 20.8685C21.246 19.1385 20.3741 16.6071 19.5786 14.4512C19.1849 13.3807 18.5541 11.7217 18.542 11.7098C18.534 11.7069 18.1322 11.7542 17.6461 11.8193C16.5975 11.9612 15.3721 12.0943 14.436 12.1653C13.5922 12.2274 11.6798 12.2362 10.8602 12.18C9.6991 12.1002 7.85497 11.8991 6.87064 11.7483C6.70993 11.7217 6.56128 11.701 6.54521 11.701C6.52512 11.701 6.4086 11.9671 6.28406 12.2924Z" fill="#FFF"/>
</g>
</svg>
