<svg width="40" height="40" viewBox="0 0 40 40" fill="none" xmlns="http://www.w3.org/2000/svg">
<path d="M37.7333 5.84443L33.7926 20H10.8904M35.763 28.0889H12.1185L8.17777 1.79999H2.26666M27.8815 6.85554H22.9556M22.9556 6.85554H18.0296M22.9556 6.85554V11.9111M22.9556 6.85554V1.79999M14.0889 36.1778C14.0889 37.2946 13.2067 38.2 12.1185 38.2C11.0303 38.2 10.1481 37.2946 10.1481 36.1778C10.1481 35.0609 11.0303 34.1555 12.1185 34.1555C13.2067 34.1555 14.0889 35.0609 14.0889 36.1778ZM35.763 36.1778C35.763 37.2946 34.8808 38.2 33.7926 38.2C32.7044 38.2 31.8222 37.2946 31.8222 36.1778C31.8222 35.0609 32.7044 34.1555 33.7926 34.1555C34.8808 34.1555 35.763 35.0609 35.763 36.1778Z" stroke="white" stroke-width="3" stroke-linecap="round" stroke-linejoin="round"/>
</svg>
