<svg width="61" height="60" viewBox="0 0 61 60" fill="none" xmlns="http://www.w3.org/2000/svg">
<g id="Cadena">
<path id="Vector" d="M32.6488 34.8485L26.6485 40.8471C26.6503 40.9167 26.6521 40.9863 26.6521 41.0558C26.6521 42.0409 26.4653 43.0223 26.0936 43.9416C25.7182 44.8571 25.1652 45.7177 24.409 46.4685L20.4631 50.4199C19.7069 51.1744 18.8499 51.7273 17.9308 52.1009C17.0098 52.4745 16.0301 52.6611 15.0469 52.6611C14.0655 52.6611 13.084 52.4743 12.1648 52.1045C11.2456 51.7273 10.3887 51.1743 9.63062 50.4199C8.87616 49.6655 8.32327 48.8086 7.94968 47.8894C7.57608 46.9702 7.3894 45.9887 7.3894 45.0036C7.3894 44.0222 7.5762 43.0407 7.94968 42.1215C8.32315 41.2023 8.87616 40.3454 9.63062 39.5873L13.5821 35.6395C14.3365 34.8888 15.1915 34.3322 16.1126 33.9586C17.03 33.585 18.0133 33.3983 18.9947 33.3983C19.0643 33.3983 19.1339 33.402 19.2017 33.4057L25.202 27.4017C25.0152 27.3157 24.8267 27.2351 24.6344 27.1582C22.8271 26.4258 20.91 26.0596 18.9947 26.0596C17.0794 26.0596 15.1605 26.4258 13.3551 27.1582C11.5478 27.8906 9.85046 28.9966 8.39112 30.4505L4.44331 34.4019C2.98573 35.8557 1.88171 37.555 1.14929 39.3641C0.416865 41.1732 0.0505371 43.0883 0.0505371 45.0035C0.0505371 46.9187 0.416748 48.8378 1.14917 50.6468C1.88159 52.4522 2.98573 54.1514 4.44319 55.6054C5.8989 57.0666 7.59812 58.1725 9.40538 58.9012C11.2145 59.6373 13.1316 59.9999 15.0469 59.9999C16.964 59.9999 18.8812 59.6373 20.6884 58.9012C22.4957 58.1725 24.1949 57.0666 25.6506 55.6054L29.6002 51.6613C31.0559 50.2001 32.16 48.5045 32.8942 46.6991C33.6285 44.8863 33.991 42.971 33.9928 41.0558C33.991 39.1441 33.6285 37.2252 32.8942 35.4125C32.8155 35.2257 32.7331 35.0353 32.6488 34.8485Z" fill="white"/>
<path id="Vector_2" d="M58.9519 9.35672C58.2195 7.54758 57.1153 5.84836 55.6579 4.39277C54.2022 2.93707 52.503 1.83117 50.6939 1.09875C48.8866 0.366211 46.9695 0 45.0542 0C43.1389 0 41.2199 0.366211 39.4126 1.09863C37.6054 1.83105 35.9062 2.93707 34.4505 4.39266L30.5009 8.34223C29.0453 9.79617 27.9412 11.4954 27.2069 13.3044C26.4726 15.1098 26.1101 17.0287 26.1101 18.9459C26.1101 20.8612 26.4727 22.7783 27.2069 24.5875C27.2856 24.7779 27.3661 24.9647 27.4523 25.1532L33.4526 19.1529C33.4507 19.0852 33.449 19.0174 33.449 18.9459C33.449 17.9626 33.6358 16.9794 34.0092 16.0621C34.3828 15.1429 34.9357 14.286 35.6919 13.5279L39.6379 9.58008C40.3941 8.82937 41.2511 8.27449 42.1721 7.89914C43.0876 7.5293 44.0709 7.33887 45.0542 7.33887C46.0392 7.33887 47.0171 7.5293 47.9399 7.89914C48.8555 8.27449 49.7142 8.82937 50.4705 9.58008C51.2249 10.3382 51.7778 11.195 52.1514 12.1143C52.5212 13.0335 52.7117 14.0149 52.7117 14.9964C52.7117 15.9797 52.5212 16.9593 52.1514 17.8821C51.7778 18.8013 51.2249 19.6582 50.4705 20.4127L46.5226 24.3605C45.7682 25.1149 44.9094 25.6678 43.9885 26.0414C43.0711 26.415 42.0897 26.6017 41.1064 26.6017C41.0367 26.6017 40.9671 26.5998 40.8994 26.598L34.8991 32.6003C35.0858 32.6845 35.2744 32.7669 35.4631 32.842C37.274 33.5781 39.1912 33.9443 41.1064 33.9443C43.0216 33.9443 44.9406 33.5781 46.746 32.842C48.5533 32.1096 50.2506 31.0055 51.71 29.5498L55.6578 25.6002C57.1153 24.1445 58.2194 22.4453 58.9518 20.6362C59.6842 18.8309 60.0504 16.9119 60.0504 14.9966C60.0504 13.0813 59.6843 11.1621 58.9519 9.35672Z" fill="white"/>
<path id="Vector_3" d="M18.8263 41.2243C20.2599 42.6598 22.5836 42.6598 24.0154 41.2243L41.2749 23.9648C42.7068 22.5329 42.7105 20.2111 41.2749 18.7756C39.8413 17.3437 37.5175 17.3437 36.0857 18.7756L18.8263 36.0387C17.3943 37.4706 17.3943 39.7925 18.8263 41.2243Z" fill="white"/>
</g>
</svg>
