<svg width="32" height="32" viewBox="0 0 32 32" fill="none" xmlns="http://www.w3.org/2000/svg">
<path d="M7.47505 5.5H29.5254L26.5254 16H9.09046M28.0254 22H10.0254L7.02539 2.5H2.52539M11.5254 28C11.5254 28.8284 10.8538 29.5 10.0254 29.5C9.19697 29.5 8.52539 28.8284 8.52539 28C8.52539 27.1716 9.19697 26.5 10.0254 26.5C10.8538 26.5 11.5254 27.1716 11.5254 28ZM28.0254 28C28.0254 28.8284 27.3538 29.5 26.5254 29.5C25.6969 29.5 25.0254 28.8284 25.0254 28C25.0254 27.1716 25.6969 26.5 26.5254 26.5C27.3538 26.5 28.0254 27.1716 28.0254 28Z" stroke="#FFF" stroke-width="3.09949" stroke-linecap="round" stroke-linejoin="round"/>
</svg>
