<svg width="56" height="60" viewBox="0 0 56 60" fill="none" xmlns="http://www.w3.org/2000/svg">
<g id="Compartir">
<path id="share" fill-rule="evenodd" clip-rule="evenodd" d="M43.8967 55.3846C40.0728 55.3846 36.9736 52.2854 36.9736 48.4615C36.9736 44.6377 40.0728 41.5385 43.8967 41.5385C47.7205 41.5385 50.8198 44.6377 50.8198 48.4615C50.8198 52.2854 47.7205 55.3846 43.8967 55.3846ZM11.589 36.9231C7.76515 36.9231 4.66592 33.8238 4.66592 30C4.66592 26.1785 7.76515 23.0769 11.589 23.0769C15.4128 23.0769 18.5121 26.1785 18.5121 30C18.5121 33.8238 15.4128 36.9231 11.589 36.9231ZM43.8967 4.61538C47.7205 4.61538 50.8198 7.71462 50.8198 11.5385C50.8198 15.3623 47.7205 18.4615 43.8967 18.4615C40.0728 18.4615 36.9736 15.3623 36.9736 11.5385C36.9736 7.71462 40.0728 4.61538 43.8967 4.61538ZM43.8967 36.9231C39.8121 36.9231 36.2467 39.0577 34.1951 42.2585L21.8375 35.197C22.6359 33.6277 23.1275 31.8785 23.1275 30C23.1275 28.8392 22.9036 27.7407 22.5852 26.6838L35.4413 19.3385C37.5482 21.6231 40.5436 23.0769 43.8967 23.0769C50.2705 23.0769 55.4351 17.9123 55.4351 11.5385C55.4351 5.16462 50.2705 0 43.8967 0C37.5228 0 32.3582 5.16462 32.3582 11.5385C32.3582 12.6992 32.582 13.7977 32.9005 14.8569L20.0444 22.2C17.9375 19.9177 14.9421 18.4615 11.589 18.4615C5.21515 18.4615 0.0505371 23.6262 0.0505371 30C0.0505371 36.3738 5.21515 41.5385 11.589 41.5385C14.2198 41.5385 16.6174 40.6246 18.5582 39.143L18.5121 39.2308L32.4851 47.2154C32.439 47.6308 32.3582 48.0323 32.3582 48.4615C32.3582 54.8354 37.5228 60 43.8967 60C50.2705 60 55.4351 54.8354 55.4351 48.4615C55.4351 42.0877 50.2705 36.9231 43.8967 36.9231Z" fill="white"/>
</g>
</svg>
