<?xml version="1.0" standalone="no"?>
<!DOCTYPE svg PUBLIC "-//W3C//DTD SVG 20010904//EN"
 "http://www.w3.org/TR/2001/REC-SVG-20010904/DTD/svg10.dtd">
<svg version="1.0" xmlns="http://www.w3.org/2000/svg"
 width="224.000000pt" height="225.000000pt" viewBox="0 0 224.000000 225.000000"
 preserveAspectRatio="xMidYMid meet">
<metadata>
Created by potrace 1.16, written by Peter Selinger 2001-2019
</metadata>
<g transform="translate(0.000000,225.000000) scale(0.100000,-0.100000)"
fill="#000000" stroke="none">
<path d="M1005 2240 c-450 -46 -833 -367 -960 -804 -110 -380 -5 -803 267
-1085 117 -120 236 -202 378 -261 410 -169 874 -83 1195 221 103 98 165 183
230 314 116 233 148 472 99 720 -12 57 -51 193 -59 202 -1 2 -28 -8 -61 -21
-68 -28 -66 -20 -28 -156 24 -83 27 -114 28 -240 0 -118 -4 -162 -22 -233 -90
-358 -355 -630 -707 -724 -86 -23 -120 -26 -245 -26 -159 -1 -222 10 -357 63
-254 97 -468 316 -562 572 -48 130 -56 177 -55 348 0 149 3 174 27 255 103
344 365 602 702 691 137 36 336 39 468 6 82 -20 237 -83 237 -96 0 -4 -25 -40
-55 -81 l-55 -74 32 -6 c120 -20 442 -65 445 -61 4 3 -121 344 -163 445 l-15
35 -51 -71 -51 -72 -66 33 c-171 87 -395 126 -596 106z"/>
<path d="M1065 1680 c-62 -9 -100 -28 -142 -72 -55 -57 -76 -119 -81 -240 -4
-91 -7 -108 -21 -108 -32 0 -82 -41 -101 -83 -17 -37 -20 -66 -20 -262 0 -249
9 -286 72 -325 31 -19 50 -20 348 -20 434 0 413 -16 418 321 2 135 -1 232 -7
257 -14 50 -60 100 -99 108 l-29 6 -5 103 c-9 164 -63 260 -169 298 -58 20
-103 25 -164 17z m121 -149 c58 -26 74 -66 74 -180 l0 -91 -140 0 -140 0 0 99
c0 86 3 102 23 132 38 56 112 72 183 40z m6 -427 c58 -30 84 -113 52 -161 -10
-16 -28 -36 -41 -46 -21 -17 -23 -26 -23 -108 l0 -89 -60 0 -60 0 0 85 0 86
-40 38 c-35 34 -40 43 -40 84 0 38 6 53 31 82 48 54 111 64 181 29z"/>
</g>
</svg>
