<svg width="40" height="40" viewBox="0 0 40 40" fill="none" xmlns="http://www.w3.org/2000/svg">
<path d="M1.4375 1.43749C2.14073 0.734471 3.09439 0.339539 4.08875 0.339539C5.08312 0.339539 6.03677 0.734471 6.74 1.43749L20 14.6975L33.26 1.43749C33.9673 0.754395 34.9145 0.376416 35.8978 0.38496C36.881 0.393504 37.8215 0.787888 38.5168 1.48317C39.2121 2.17845 39.6065 3.119 39.615 4.10223C39.6236 5.08547 39.2456 6.03273 38.5625 6.73999L25.3025 20L38.5625 33.26C39.2456 33.9672 39.6236 34.9145 39.615 35.8977C39.6065 36.881 39.2121 37.8215 38.5168 38.5168C37.8215 39.2121 36.881 39.6065 35.8978 39.615C34.9145 39.6236 33.9673 39.2456 33.26 38.5625L20 25.3025L6.74 38.5625C6.03275 39.2456 5.08549 39.6236 4.10225 39.615C3.11901 39.6065 2.17846 39.2121 1.48318 38.5168C0.787903 37.8215 0.393519 36.881 0.384975 35.8977C0.376431 34.9145 0.75441 33.9672 1.4375 33.26L14.6975 20L1.4375 6.73999C0.734486 6.03676 0.339554 5.0831 0.339554 4.08874C0.339554 3.09437 0.734486 2.14072 1.4375 1.43749Z" fill="white"/>
</svg>
