<svg width="60" height="60" viewBox="0 0 60 60" fill="none" xmlns="http://www.w3.org/2000/svg">
<g id="Group">
<path id="Vector" d="M48.5426 0.132101C48.2696 0.204426 47.8602 0.385241 47.6327 0.529892C47.4053 0.674543 45.9039 2.11202 44.2934 3.71222L41.3545 6.63237L47.5417 12.7801L53.729 18.9277L56.3222 16.3511C57.7598 14.9317 59.0882 13.5395 59.2793 13.2411C60.1801 11.9302 60.2347 10.4566 59.4522 8.84734C59.1974 8.32298 58.7516 7.84383 55.4305 4.53493C51.4088 0.520851 51.1722 0.330997 50.0166 0.0868969C49.407 -0.0396729 49.1613 -0.030632 48.5426 0.132101Z" fill="white"/>
<path id="Vector_2" d="M26.7964 21.1155C19.5628 28.321 11.9743 35.879 9.93617 37.9222L6.22382 41.6289L3.0938 50.7962C1.37411 55.8409 -0.0180214 59.9815 0.000176399 59.9996C0.0183742 60.0267 4.21296 58.6435 9.31744 56.9438L18.5892 53.8429L35.4495 37.0905L52.3188 20.329L46.1316 14.1813L39.9443 8.03362L26.7964 21.1155ZM12.684 43.8981C12.6476 44.6846 12.593 45.869 12.5566 46.538L12.5021 47.7494L15.2317 47.6952C16.7421 47.659 17.9705 47.641 17.9705 47.659C17.9614 47.7856 17.0788 52.1704 17.0515 52.1884C17.0333 52.2065 14.9315 52.8936 12.3838 53.7163L7.75243 55.208L6.30571 53.8519C5.5141 53.1015 4.86808 52.4777 4.86808 52.4687C4.86808 52.4325 8.14368 43.3557 8.16188 43.3376C8.20738 43.3014 12.3747 42.4968 12.5566 42.4878C12.7295 42.4787 12.7386 42.5149 12.684 43.8981Z" fill="white"/>
</g>
</svg>
