<svg width="41" height="40" viewBox="0 0 41 40" fill="#FFF" xmlns="http://www.w3.org/2000/svg">
<g id="Iconos">
<path id="Vector" d="M1.7738 0.382469C1.36702 0.584713 0.802053 1.05661 0.530867 1.43863L0.0336914 2.13524V20V37.8648L0.530867 38.5614C1.61561 40.067 0.734256 39.9995 20.0337 39.9995C39.3331 39.9995 38.4518 40.067 39.5365 38.5614L40.0337 37.8648V20V2.13524L39.5365 1.43863C38.4518 -0.0669594 39.3331 0.000457764 19.9885 0.000457764C4.35008 0.000457764 2.45177 0.0453987 1.7738 0.382469ZM36.5309 20V36.4041H31.7851H27.0393V30.2245V24.0449H29.4122H31.7625L31.8755 23.3033C32.0563 22.337 32.4631 19.1236 32.4631 18.854C32.4631 18.7416 31.2653 18.6517 29.7512 18.6517H27.0393V16.4046C27.0393 12.8766 27.5365 12.3597 30.9037 12.3597H32.6891V9.91034V7.46096L30.384 7.30366C25.7964 7.01153 23.2427 8.18004 21.8868 11.1912C21.6156 11.7979 21.48 12.9215 21.3896 15.281L21.2766 18.5394L18.8586 18.6068L16.4179 18.6742V21.3483V24.0224L18.8586 24.0898L21.2766 24.1572L21.3444 30.2694L21.3896 36.4041H12.4631H3.53652V20V3.59588H20.0337H36.5309V20Z" fill="#FFF"/>
</g>
</svg>
