<svg width="60" height="61" viewBox="0 0 60 61" fill="none" xmlns="http://www.w3.org/2000/svg">
<g id="Property 1=Google">
<path id="Vector" d="M48.3744 51.2158C53.4563 46.4467 56.388 39.4421 56.388 31.121C56.388 29.1836 56.217 27.3205 55.8994 25.5322H30.588V36.1137H45.0516C44.4164 39.5166 42.5108 42.398 39.6523 44.3353" stroke="#00BADB" stroke-width="4" stroke-linecap="round" stroke-linejoin="round"/>
<path id="Vector_2" d="M6.59607 42.7705C11.0182 51.6876 20.0824 57.8228 30.5881 57.8228C37.8443 57.8228 43.9278 55.3886 48.3744 51.2157L39.6523 44.3352C37.2579 45.9746 34.2041 46.9681 30.5881 46.9681C23.6006 46.9681 17.6637 42.1742 15.5381 35.7161" stroke="#00BADB" stroke-width="4" stroke-linecap="round" stroke-linejoin="round"/>
<path id="Vector_3" d="M6.59601 18.2544C4.76364 21.9305 3.71301 26.0787 3.71301 30.5C3.71301 34.9214 4.76364 39.0695 6.59601 42.7456L13.5591 37.2314L15.5381 35.6914C15.0006 34.052 14.683 32.3132 14.683 30.5C14.683 28.6868 15.0006 26.948 15.5381 25.3087" stroke="#00BADB" stroke-width="4" stroke-linecap="round" stroke-linejoin="round"/>
<path id="Vector_4" d="M30.5881 14.0566C34.5461 14.0566 38.0642 15.4475 40.8738 18.1303L48.5698 10.306C43.9033 5.88463 37.8442 3.17725 30.5879 3.17725C20.0823 3.17725 11.0181 9.31245 6.59595 18.2545L15.5379 25.3088C17.6636 18.8507 23.6006 14.0566 30.5881 14.0566Z" stroke="#00BADB" stroke-width="4" stroke-linecap="round" stroke-linejoin="round"/>
</g>
</svg>
