<svg width="64" height="50" viewBox="0 0 64 50" fill="#FFF" xmlns="http://www.w3.org/2000/svg">
<path d="M3.05054 45C3.05054 42.2386 5.28911 40 8.05054 40H58.0505C60.812 40 63.0505 42.2386 63.0505 45C63.0505 47.7614 60.812 50 58.0505 50H8.05054C5.28911 50 3.05054 47.7614 3.05054 45Z" fill="#FFF"/>
<path d="M18.0505 25C18.0505 22.2386 20.2891 20 23.0505 20H58.0505C60.812 20 63.0505 22.2386 63.0505 25C63.0505 27.7614 60.812 30 58.0505 30H23.0505C20.2891 30 18.0505 27.7614 18.0505 25Z" fill="#FFF"/>
<path d="M3.05054 5C3.05054 2.23858 5.28911 0 8.05054 0H58.0505C60.812 0 63.0505 2.23858 63.0505 5C63.0505 7.76142 60.812 10 58.0505 10H8.05054C5.28911 10 3.05054 7.76142 3.05054 5Z" fill="#FFF"/>
<path d="M14.5505 24.134C15.2172 24.5189 15.2172 25.4811 14.5505 25.866L5.55054 31.0622C4.88387 31.4471 4.05054 30.966 4.05054 30.1962V19.8038C4.05054 19.034 4.88387 18.5529 5.55054 18.9378L14.5505 24.134Z" fill="#FFF"/>
</svg>
