<svg width="64" height="50" viewBox="0 0 64 50" fill="none" xmlns="http://www.w3.org/2000/svg">
<path d="M0.0505371 45C0.0505371 42.2386 2.28911 40 5.05054 40H55.0505C57.812 40 60.0505 42.2386 60.0505 45C60.0505 47.7614 57.812 50 55.0505 50H5.05054C2.28911 50 0.0505371 47.7614 0.0505371 45Z" fill="#FFF"/>
<path d="M0.0505371 25C0.0505371 22.2386 2.28911 20 5.05054 20H40.0505C42.812 20 45.0505 22.2386 45.0505 25C45.0505 27.7614 42.812 30 40.0505 30H5.05054C2.28911 30 0.0505371 27.7614 0.0505371 25Z" fill="#FFF"/>
<path d="M0.0505371 5C0.0505371 2.23858 2.28911 0 5.05054 0H55.0505C57.812 0 60.0505 2.23858 60.0505 5C60.0505 7.76142 57.812 10 55.0505 10H5.05054C2.28911 10 0.0505371 7.76142 0.0505371 5Z" fill="#FFF"/>
<path d="M48.5505 25.866C47.8839 25.4811 47.8839 24.5189 48.5505 24.134L57.5505 18.9378C58.2172 18.5529 59.0505 19.034 59.0505 19.8038V30.1962C59.0505 30.966 58.2172 31.4471 57.5505 31.0622L48.5505 25.866Z" fill="#FFF"/>
</svg>
