<svg width="26" height="26" viewBox="0 0 26 26" fill="none" xmlns="http://www.w3.org/2000/svg">
<g id="image 5 (Traced)">
<path id="Layer 3" fill-rule="evenodd" clip-rule="evenodd" d="M12.1927 0.996865C11.5173 1.09292 11.1258 1.31906 9.86378 2.34234C9.27893 2.8165 7.85503 3.96801 6.69956 4.90125C5.54404 5.83449 4.05185 7.04021 3.38356 7.58062C2.71528 8.12103 1.7806 8.87683 1.30652 9.26019C0.0115193 10.3074 0.0163292 10.2993 0.0179493 11.4343C0.0188606 12.0769 0.0352132 12.2492 0.111559 12.4201C0.316398 12.8786 0.775133 13.1757 1.27812 13.1757C1.61859 13.1757 1.85411 13.0851 2.1119 12.855C2.37815 12.6173 2.50816 12.3296 2.53758 11.9129L2.56239 11.5612L3.78301 10.5721C4.45439 10.0282 6.39337 8.46156 8.09192 7.09086C9.79047 5.72011 11.3082 4.49118 11.4646 4.35986C12.0474 3.87056 12.5499 3.7517 13.0281 3.98994C13.2258 4.08847 15.0864 5.57571 21.0779 10.4245L22.4701 11.5512L22.5021 11.9108C22.5397 12.3351 22.67 12.6213 22.9317 12.855C23.1895 13.0851 23.4251 13.1757 23.7655 13.1757C24.2685 13.1757 24.7272 12.8786 24.9321 12.4201C25.0077 12.2508 25.0248 12.0781 25.0257 11.4726C25.0263 11.063 25.001 10.6445 24.969 10.536C24.882 10.2408 24.6792 10.0241 23.8942 9.38795C22.467 8.23145 20.3628 6.53022 18.9262 5.3716C18.1187 4.72031 16.7404 3.60638 15.8632 2.89614C13.89 1.29847 13.8152 1.24669 13.2306 1.07382C13.0206 1.01174 12.4078 0.966287 12.1927 0.996865ZM12.1037 4.84807C11.999 4.88607 11.8851 4.94012 11.8506 4.96817C10.1841 6.32168 3.80787 11.6631 3.60992 11.8713C3.4353 12.0551 3.30671 12.2448 3.26818 12.3756C3.18698 12.6511 3.17852 24.7726 3.25932 25.0684C3.33977 25.363 3.60648 25.6845 3.89019 25.8289L4.14298 25.9576L6.76295 25.9723L9.38292 25.9869V22.38C9.38292 19.4502 9.39588 18.7416 9.45198 18.6051C9.54184 18.3864 9.79209 18.1754 10.0431 18.1067C10.1749 18.0706 11.059 18.057 12.6355 18.0668C15.306 18.0832 15.2081 18.0701 15.4936 18.4507L15.6354 18.6397L15.649 22.3116L15.6627 25.9834H18.1839C21.0646 25.9834 21.0826 25.9813 21.4543 25.6033C21.8633 25.1875 21.8373 25.6515 21.8373 18.7644C21.8373 14.4291 21.8208 12.5782 21.7807 12.4164C21.748 12.2842 21.6424 12.0936 21.5297 11.9635C21.2136 11.5984 13.209 4.96653 12.9647 4.86738C12.7052 4.76211 12.3619 4.75438 12.1037 4.84807Z" fill="#FFF"/>
<path id="Layer 4" fill-rule="evenodd" clip-rule="evenodd" d="M12.1136 1.01981C11.7304 1.07716 11.309 1.24451 10.9956 1.46371C10.8517 1.56434 9.28505 2.81778 7.51405 4.24922C5.7431 5.68061 3.42345 7.55528 2.35931 8.41517C1.29522 9.27505 0.358667 10.0599 0.278118 10.1593C0.19757 10.2586 0.105631 10.4282 0.0738369 10.5361C0.00255341 10.778 -0.00195285 12.0421 0.0675587 12.2966C0.135298 12.5445 0.493842 12.9512 0.748195 13.0688C0.872991 13.1264 1.0711 13.1634 1.25644 13.1638C2.00436 13.1653 2.54036 12.5917 2.55033 11.779L2.55322 11.5439L7.17135 7.8188C9.71139 5.76998 11.8758 4.04872 11.9811 3.99379C12.0864 3.93881 12.2795 3.88131 12.4101 3.86597C12.8521 3.81413 13.0738 3.94839 14.654 5.22503C15.4513 5.86912 16.9321 7.06573 17.9448 7.88412C18.9575 8.70257 20.3938 9.86082 21.1366 10.458L22.4872 11.5439L22.4909 11.779C22.5039 12.5941 23.038 13.1653 23.7857 13.1638C24.1763 13.163 24.4416 13.0399 24.7027 12.7383C24.9792 12.4189 25.0261 12.2218 25.0255 11.3835C25.0251 10.7391 25.0132 10.6434 24.9052 10.4114C24.7583 10.096 24.6898 10.0311 23.4566 9.0381C22.9136 8.60085 20.6309 6.75737 18.3838 4.94144C16.1367 3.12551 14.1828 1.55899 14.0417 1.46031C13.7182 1.23411 13.3177 1.08066 12.8842 1.01693C12.5063 0.961333 12.504 0.961333 12.1136 1.01981ZM12.0093 4.91709C11.7712 5.04141 4.16277 11.32 3.64429 11.82C3.53752 11.9229 3.40082 12.0998 3.34052 12.2131L3.23092 12.419L3.21725 18.6183C3.20226 25.4318 3.18996 25.1386 3.50754 25.5283C3.59204 25.632 3.76939 25.771 3.90168 25.8372L4.14221 25.9577L6.76218 25.9727L9.38216 25.9877V22.3855C9.38216 19.9589 9.39977 18.7359 9.43617 18.6383C9.51293 18.4322 9.67944 18.2631 9.91374 18.1531C10.1016 18.0649 10.29 18.0581 12.5211 18.0581C14.7522 18.0581 14.9405 18.0649 15.1284 18.1531C15.3627 18.2631 15.5292 18.4322 15.6059 18.6383C15.6423 18.7359 15.66 19.9589 15.66 22.3855V25.9877L18.2799 25.9727C21.2207 25.9558 21.0943 25.9718 21.4785 25.5692C21.8602 25.1693 21.8402 25.5718 21.8249 18.6183L21.8112 12.419L21.6985 12.2046C21.5505 11.9232 21.5673 11.9378 17.1028 8.22248C14.8399 6.33927 13.1509 4.97001 13.002 4.898C12.6562 4.73074 12.355 4.73651 12.0093 4.91709Z" fill="#FFF"/>
<path id="Layer 5" fill-rule="evenodd" clip-rule="evenodd" d="M12.3451 1.00189C11.7607 1.05743 11.2735 1.25135 10.7968 1.61823C9.61017 2.5315 0.355766 10.058 0.271471 10.1783C0.0673916 10.4698 0.0172699 10.7229 0.0178268 11.4604C0.0182825 12.0902 0.0305344 12.188 0.137966 12.4191C0.356525 12.8891 0.777239 13.1623 1.28574 13.1644C2.00637 13.1673 2.54287 12.5607 2.55042 11.7345L2.55219 11.544L7.13873 7.83758C9.66135 5.79906 11.8306 4.07326 11.9593 4.00248C12.1405 3.90282 12.2675 3.87379 12.5223 3.87379C12.7773 3.87379 12.904 3.90277 13.0851 4.00248C13.2136 4.07326 15.3828 5.79906 17.9055 7.83758L22.4923 11.544L22.4941 11.7345C22.4997 12.3253 22.7644 12.8041 23.2103 13.03C23.8569 13.3576 24.6188 13.0743 24.9219 12.3934C25.0093 12.1972 25.0252 12.0542 25.0262 11.4604C25.0273 10.7221 24.9776 10.4703 24.7726 10.1776C24.682 10.0482 14.7876 2.00916 14.1075 1.51234C13.6219 1.15771 12.9015 0.949022 12.3451 1.00189ZM12.2182 4.81974C12.1484 4.84296 12.0231 4.89907 11.9398 4.94442C11.6422 5.10622 3.59106 11.8533 3.44976 12.0593C3.37225 12.1722 3.28588 12.3895 3.25783 12.5419C3.18939 12.9144 3.18817 24.5825 3.25662 24.9492C3.32947 25.3399 3.55208 25.6372 3.90278 25.8123L4.19409 25.9578H6.77609H9.35809L9.36452 22.3468C9.371 18.7399 9.3711 18.7356 9.48117 18.5366C9.54172 18.427 9.67386 18.2797 9.77476 18.2095L9.95818 18.0817H12.5223H15.0864L15.2699 18.2095C15.3708 18.2797 15.5027 18.4266 15.563 18.5358C15.6726 18.7339 15.6728 18.7429 15.6796 22.3461L15.6865 25.9578H18.2685H20.8505L21.1467 25.8099C21.4895 25.6387 21.6974 25.3571 21.784 24.9463C21.8562 24.604 21.8588 12.9338 21.7868 12.5419C21.7587 12.3895 21.673 12.1732 21.5963 12.0613C21.4412 11.8352 13.3794 5.09293 13.0601 4.92223C12.8432 4.80631 12.4151 4.75421 12.2182 4.81974Z" fill="#FFF"/>
<path id="Layer 6" fill-rule="evenodd" clip-rule="evenodd" d="M11.9409 1.05319C11.5659 1.14477 11.121 1.38676 10.6246 1.76909C10.3183 2.00501 7.87015 3.97651 5.18431 6.15021C0.743875 9.74388 0.28919 10.1256 0.17219 10.3582C0.0563543 10.5884 0.0416723 10.6848 0.0259778 11.3212C0.0120552 11.8855 0.0259782 12.0816 0.0948822 12.2926C0.381079 13.1688 1.47838 13.4533 2.12165 12.8181C2.3632 12.5796 2.48516 12.2956 2.52779 11.8723L2.56181 11.5348L7.13777 7.83292C9.65457 5.79682 11.8332 4.06762 11.9792 3.99025C12.3428 3.79752 12.7035 3.79752 13.067 3.99025C13.213 4.06762 15.3917 5.79682 17.9085 7.83292L22.4844 11.5348L22.5185 11.8723C22.5611 12.2956 22.683 12.5796 22.9246 12.8181C23.5679 13.4533 24.6652 13.1688 24.9514 12.2926C25.0203 12.0816 25.0342 11.8855 25.0203 11.3212C25.0046 10.6848 24.9899 10.5884 24.8741 10.3582C24.757 10.1256 24.3026 9.74398 19.862 6.15011C13.6293 1.10585 13.8322 1.26018 13.2066 1.08757C12.9672 1.02158 12.1603 0.999649 11.9409 1.05319ZM12.2138 4.84417C12.0855 4.87994 11.8905 4.97734 11.7804 5.06063C11.6703 5.14387 9.77445 6.71513 7.56725 8.55232C4.96823 10.7156 3.50652 11.9659 3.41888 12.1005L3.2836 12.3084L3.26968 18.6439C3.25429 25.6442 3.2353 25.2147 3.57557 25.5703C3.92774 25.9384 3.8484 25.9294 6.73761 25.9307L9.33096 25.9318L9.34493 22.3412C9.36067 18.2909 9.34007 18.4979 9.75547 18.2184L9.95904 18.0814H12.5231H15.0872L15.2908 18.2184C15.7062 18.4979 15.6856 18.2909 15.7013 22.3412L15.7153 25.9318L18.3086 25.9307C21.2024 25.9294 21.1199 25.939 21.4689 25.5649C21.8094 25.2 21.7879 25.6594 21.7879 18.726V12.4435L21.6779 12.2055C21.5513 11.9315 21.9084 12.2404 16.835 8.01752C14.8792 6.38953 13.1829 5.00699 13.0655 4.94527C12.7853 4.79779 12.5011 4.76402 12.2138 4.84417Z" fill="#FFF"/>
</g>
</svg>
