<svg width="60" height="60" viewBox="0 0 60 60" fill="none" xmlns="http://www.w3.org/2000/svg">
<g id="Property 1=Instrucciones">
<path id="Vector" fill-rule="evenodd" clip-rule="evenodd" d="M0 30C0 13.4315 13.4315 0 30 0C46.5684 0 60 13.4315 60 30C60 46.5684 46.5684 60 30 60C13.4315 60 0 46.5684 0 30ZM27 33C27 34.6569 28.3431 36 30 36C31.6569 36 33 34.6569 33 33V18C33 16.3432 31.6569 15 30 15C28.3431 15 27 16.3432 27 18V33ZM33 41.9664C33 40.3095 31.6569 38.9664 30 38.9664C28.3431 38.9664 27 40.3095 27 41.9664V42C27 43.6569 28.3431 45 30 45C31.6569 45 33 43.6569 33 42V41.9664Z" fill="white"/>
</g>
</svg>
