<svg width="41" height="40" viewBox="0 0 41 40" fill="#FFF" xmlns="http://www.w3.org/2000/svg">
<g id="Iconos">
<path id="Vector" d="M14.5309 0.0255127C11.2543 0.0866699 9.91925 0.203884 8.49245 0.550434C6.25544 1.09574 4.38532 2.19146 2.95852 3.80699C1.45529 5.50407 0.604309 7.5477 0.267992 10.2895C0.0845471 11.7675 0.0132073 15.3043 0.0386858 21.5524C0.0590686 26.501 0.130408 28.9217 0.288375 29.9104C0.527873 31.4546 0.711318 32.1732 1.13936 33.2485C2.14321 35.7763 4.25793 37.8913 6.78539 38.8953C9.30777 39.8992 11.0301 40.0266 21.2827 39.9961C26.4497 39.9808 28.8905 39.9094 29.9454 39.7463C31.4435 39.517 32.2079 39.3233 33.2678 38.9003C35.8156 37.8913 37.9201 35.7865 38.9291 33.2485C39.3571 32.1732 39.5406 31.4546 39.7801 29.9104C39.938 28.8911 40.0145 26.3175 40.0298 21.2212C40.0603 11.003 39.9329 9.27026 38.9291 6.74758C37.9252 4.2198 35.8105 2.10482 33.283 1.10084C32.2079 0.672749 31.4486 0.479088 29.9454 0.249752C29.5785 0.193691 28.5288 0.122345 27.3465 0.0713806C25.8076 0.00512695 17.1195 -0.0254517 14.5309 0.0255127ZM25.9198 3.64391C29.1963 3.71016 30.4396 3.87325 31.8104 4.40836C32.7939 4.79058 33.4512 5.21868 34.1901 5.97293C34.5977 6.39083 35.0869 7.04826 35.3111 7.49164C35.8615 8.57207 36.1672 9.85634 36.2946 11.6146C36.478 14.2698 36.478 25.8792 36.2895 28.4376C36.1621 30.155 35.8564 31.4291 35.3111 32.5044C34.9086 33.3046 34.0015 34.3187 33.2066 34.859C32.6665 35.231 32.4881 35.3176 31.8257 35.5877C30.0626 36.2859 28.4982 36.393 20.0342 36.3879C12.6047 36.3879 10.8721 36.3114 9.28229 35.919C8.76253 35.7865 7.95741 35.496 7.52937 35.2769C7.08604 35.0526 6.4287 34.5634 6.01085 34.1557C4.60443 32.7746 3.98276 31.1641 3.77383 28.407C3.58529 25.8181 3.58529 14.2545 3.77893 11.5636C3.88084 10.1366 4.07448 9.17853 4.44647 8.22042C4.81336 7.2725 5.25159 6.59978 5.9446 5.90668C6.63762 5.21358 7.31025 4.7753 8.25805 4.40836C9.6186 3.87834 10.8772 3.71526 14.0977 3.64391C16.2532 3.59295 23.6675 3.59295 25.9198 3.64391Z" fill="#FFF"/>
<path id="Vector_2" d="M30.1934 6.97671C29.2507 7.18056 28.4915 7.99088 28.3386 8.96428C28.0889 10.5136 29.4953 11.9303 31.0393 11.6908C31.9769 11.543 32.7413 10.8907 33.0063 10.0141C33.2713 9.13756 33.0165 8.19983 32.354 7.58318C31.9871 7.24682 31.6508 7.06845 31.1973 6.97161C30.7896 6.88498 30.6011 6.88498 30.1934 6.97671Z" fill="#FFF"/>
<path id="Vector_3" d="M19.4501 9.73861C18.7723 9.76919 17.9112 9.91698 17.157 10.1361C13.5288 11.186 10.716 14.2387 9.97205 17.9335C9.70707 19.2484 9.70707 20.7365 9.97205 22.0615C10.767 26.0418 13.9977 29.2678 17.9723 30.0628C19.2666 30.3176 20.8259 30.3176 22.0998 30.0628C26.0898 29.2576 29.2949 26.052 30.1001 22.0615C30.36 20.7722 30.36 19.2382 30.1001 17.9335C29.3051 13.9533 26.0796 10.7273 22.0998 9.93227C21.2998 9.77429 20.3061 9.70294 19.4501 9.73861ZM20.7393 13.3774C23.1037 13.6322 25.091 15.0643 26.1101 17.2506C26.4923 18.066 26.6809 18.9681 26.6809 19.9975C26.6809 21.3481 26.3394 22.51 25.6209 23.6312C24.8362 24.8594 23.4858 25.894 22.0947 26.3323C21.3253 26.5718 20.8768 26.6432 20.0361 26.6432C19.1953 26.6432 18.7468 26.5718 17.9774 26.3323C15.9544 25.6952 14.2983 24.0134 13.6766 21.9596C13.4524 21.2308 13.3913 20.7824 13.3913 19.9721C13.3964 18.7031 13.6715 17.6838 14.3136 16.5932C15.613 14.3712 18.1659 13.092 20.7393 13.3774Z" fill="#FFF"/>
</g>
</svg>
