<svg width="60" height="60" viewBox="0 0 60 60" fill="none" xmlns="http://www.w3.org/2000/svg">
<g id="Property 1=Me gusta">
<path id="Me gusta" d="M2.30767 25.0722L4.60676 24.8919C4.5003 23.7752 3.44283 22.9328 2.20819 22.9811C0.973529 23.0294 0 23.9513 0 25.0722H2.30767ZM55.3413 30.1602L53.1706 41.5454L57.7185 42.259L59.8893 30.8735L55.3413 30.1602ZM33.8304 55.814H19.527V60H33.8304V55.814ZM16.7229 53.4767L14.2239 27.2646L9.62575 27.6251L12.1247 53.8373L16.7229 53.4767ZM53.1706 41.5454C51.6112 49.7238 43.4805 55.814 33.8304 55.814V60C45.6033 60 55.7558 52.5516 57.7185 42.259L53.1706 41.5454ZM33.8606 10.7446L31.8215 22.0318L36.3763 22.7086L38.4153 11.4214L33.8606 10.7446ZM15.1929 25.104L19.6197 21.6442L16.6069 18.4731L12.18 21.933L15.1929 25.104ZM27.6736 10.3871L29.1373 5.26941L24.6699 4.21832L23.2062 9.33604L27.6736 10.3871ZM31.348 4.26532L31.7942 4.39528L33.2058 0.409856L32.7597 0.279893L31.348 4.26532ZM25.4567 15.533C26.4164 13.9032 27.1619 12.1769 27.6736 10.3871L23.2062 9.33604C22.7866 10.803 22.1751 12.2203 21.3857 13.5607L25.4567 15.533ZM31.7942 4.39528C32.7369 4.67 33.4064 5.33047 33.6264 6.10001L38.0941 5.04895C37.4618 2.83866 35.5966 1.10644 33.2058 0.409856L31.7942 4.39528ZM29.1373 5.26941C29.2453 4.89264 29.5453 4.5464 29.9991 4.34801L27.9954 0.576963C26.3585 1.29233 25.129 2.61283 24.6699 4.21832L29.1373 5.26941ZM29.9991 4.34801C30.4136 4.16681 30.9016 4.13527 31.348 4.26532L32.7597 0.279893C31.1914 -0.177084 29.4803 -0.0720143 27.9954 0.576963L29.9991 4.34801ZM36.6264 27.1652H52.5681V22.9792H36.6264V27.1652ZM7.59627 56.2496L4.60676 24.8919L0.00858445 25.2525L2.99809 56.6101L7.59627 56.2496ZM4.61534 56.5471V25.0722H0V56.5471H4.61534ZM2.99809 56.6101C2.95751 56.1846 3.32754 55.814 3.80523 55.814V60C6.03896 60 7.78829 58.2639 7.59627 56.2496L2.99809 56.6101ZM38.4153 11.4214C38.7984 9.30016 38.6892 7.12961 38.0941 5.04895L33.6264 6.10001C34.0603 7.61644 34.14 9.19846 33.8606 10.7446L38.4153 11.4214ZM19.527 55.814C18.0689 55.814 16.8491 54.8009 16.7229 53.4767L12.1247 53.8373C12.4569 57.3215 15.6697 60 19.527 60V55.814ZM19.6197 21.6442C21.7115 20.0093 23.9665 18.0633 25.4567 15.533L21.3857 13.5607C20.3199 15.3702 18.6229 16.8975 16.6069 18.4731L19.6197 21.6442ZM59.8893 30.8735C60.6748 26.753 57.1813 22.9792 52.5681 22.9792V27.1652C54.3115 27.1652 55.6401 28.5932 55.3413 30.1602L59.8893 30.8735ZM3.80523 55.814C4.2551 55.814 4.61534 56.1444 4.61534 56.5471H0C0 58.452 1.70118 60 3.80523 60V55.814ZM31.8215 22.0318C31.3363 24.7189 33.62 27.1652 36.6264 27.1652V22.9792C36.4729 22.9792 36.3501 22.853 36.3763 22.7086L31.8215 22.0318ZM14.2239 27.2646C14.1457 26.4441 14.5068 25.6404 15.1929 25.104L12.18 21.933C10.3698 23.3478 9.41988 25.4659 9.62575 27.6251L14.2239 27.2646Z" fill="white"/>
</g>
</svg>
