<svg width="60" height="60" viewBox="0 0 60 60" fill="none" xmlns="http://www.w3.org/2000/svg">
<g id="Property 1=Multimedia">
<path id="Vector" d="M2.14286 55.4286C1.57454 55.4286 1.02949 55.2028 0.627628 54.8009C0.225765 54.3991 0 53.854 0 53.2857V6.14286C0 5.57454 0.225765 5.02949 0.627628 4.62763C1.02949 4.22577 1.57454 4 2.14286 4H57.8571C58.4255 4 58.9705 4.22577 59.3724 4.62763C59.7742 5.02949 60 5.57454 60 6.14286V53.2857C60 53.854 59.7742 54.3991 59.3724 54.8009C58.9705 55.2028 58.4255 55.4286 57.8571 55.4286H2.14286ZM23.2714 40.1286L18.6557 35.5129C18.2539 35.1111 17.7089 34.8855 17.1407 34.8855C16.5725 34.8855 16.0276 35.1111 15.6257 35.5129L4.28571 46.8614H56.43L40.2171 27.4043C40.016 27.1624 39.7642 26.9677 39.4794 26.8341C39.1946 26.7005 38.8839 26.6312 38.5693 26.6312C38.2547 26.6312 37.944 26.7005 37.6592 26.8341C37.3744 26.9677 37.1225 27.1624 36.9214 27.4043L26.4343 39.9871C26.2435 40.216 26.0071 40.4025 25.7402 40.5349C25.4733 40.6672 25.1817 40.7424 24.8841 40.7557C24.5864 40.7691 24.2893 40.7201 24.0116 40.6122C23.734 40.5042 23.4819 40.3395 23.2714 40.1286ZM12.8571 21.1429C12.8574 21.9874 13.024 22.8235 13.3475 23.6036C13.6709 24.3837 14.1448 25.0925 14.7422 25.6894C15.3395 26.2864 16.0486 26.7598 16.8289 27.0827C17.6092 27.4057 18.4455 27.5717 19.29 27.5714C20.1345 27.5711 20.9707 27.4045 21.7508 27.0811C22.5309 26.7577 23.2396 26.2837 23.8366 25.6864C24.4335 25.0891 24.907 24.38 25.2299 23.5997C25.5528 22.8193 25.7189 21.9831 25.7186 21.1386C25.718 19.433 25.0399 17.7976 23.8335 16.592C22.6271 15.3864 20.9912 14.7094 19.2857 14.71C17.5802 14.7106 15.9447 15.3886 14.7391 16.595C13.5335 17.8014 12.8566 19.4373 12.8571 21.1429Z" fill="white"/>
</g>
</svg>
