<svg width="60" height="60" viewBox="0 0 60 60" fill="none" xmlns="http://www.w3.org/2000/svg">
<g id="Property 1=No me gusta">
<path id="No me gusta" d="M57.6649 34.947L55.3676 35.1252C55.473 36.241 56.5289 37.0836 57.7625 37.0364C58.9962 36.9892 59.9696 36.0689 59.9706 34.9489L57.6649 34.947ZM4.68018 29.8186L6.85869 18.4448L2.31516 17.728L0.136651 29.1021L4.68018 29.8186ZM26.1945 4.20457L40.4859 4.21661L40.4894 0.0340905L26.1981 0.0220417L26.1945 4.20457ZM43.2857 6.55422L45.7605 32.7464L50.3551 32.3901L47.8803 6.19784L43.2857 6.55422ZM6.85869 18.4448C8.42363 10.2746 16.5526 4.19644 26.1945 4.20457L26.1981 0.0220417C14.4352 0.0121246 4.28493 7.44567 2.31516 17.728L6.85869 18.4448ZM26.1264 49.2359L28.1733 37.96L23.623 37.2799L21.5761 48.5558L26.1264 49.2359ZM44.7905 34.9044L40.3645 38.3575L43.3721 41.5284L47.7982 38.0752L44.7905 34.9044ZM32.3079 49.5983L30.8412 54.7105L35.3039 55.7645L36.7707 50.6523L32.3079 49.5983ZM28.6315 55.7119L28.1858 55.5816L26.7719 59.5625L27.2176 59.6927L28.6315 55.7119ZM34.5273 44.4587C33.5671 46.0863 32.8207 47.8105 32.3079 49.5983L36.7707 50.6523C37.1911 49.1869 37.8033 47.7714 38.5932 46.4327L34.5273 44.4587ZM28.1858 55.5816C27.2441 55.3064 26.5756 54.6459 26.3565 53.8768L21.8917 54.9232C22.5216 57.1322 24.3838 58.8645 26.7719 59.5625L28.1858 55.5816ZM30.8412 54.7105C30.733 55.0868 30.4329 55.4325 29.9793 55.6304L31.9781 59.3999C33.6142 58.6866 34.8438 57.3682 35.3039 55.7645L30.8412 54.7105ZM29.9793 55.6304C29.565 55.8111 29.0774 55.8422 28.6315 55.7119L27.2176 59.6927C28.7842 60.1507 30.4939 60.0471 31.9781 59.3999L29.9793 55.6304ZM23.3768 32.8268L7.44852 32.8134L7.44499 36.9959L23.3733 37.0093L23.3768 32.8268ZM52.407 3.7914L55.3676 35.1252L59.9622 34.7688L57.0016 3.43502L52.407 3.7914ZM55.3856 3.49668L55.3591 34.9451L59.9706 34.9489L59.9971 3.50057L55.3856 3.49668ZM57.0016 3.43502C57.0418 3.86028 56.6717 4.23026 56.1945 4.22986L56.198 0.0473341C53.9661 0.0454524 52.2168 1.77861 52.407 3.7914L57.0016 3.43502ZM21.5761 48.5558C21.1916 50.675 21.2989 52.8438 21.8917 54.9232L26.3565 53.8768C25.9243 52.3613 25.846 50.7805 26.1264 49.2359L21.5761 48.5558ZM40.4859 4.21661C41.9428 4.21784 43.1607 5.23104 43.2857 6.55422L47.8803 6.19784C47.5514 2.7163 44.3435 0.0373398 40.4894 0.0340905L40.4859 4.21661ZM40.3645 38.3575C38.2731 39.9893 36.0183 41.9318 34.5273 44.4587L38.5932 46.4327C39.6596 44.6256 41.3565 43.1011 43.3721 41.5284L40.3645 38.3575ZM0.136651 29.1021C-0.651686 33.2184 2.83569 36.992 7.44499 36.9959L7.44852 32.8134C5.70662 32.8119 4.38034 31.384 4.68018 29.8186L0.136651 29.1021ZM56.1945 4.22986C55.745 4.22948 55.3853 3.89904 55.3856 3.49668L59.9971 3.50057C59.9987 1.59724 58.3003 0.0491064 56.198 0.0473341L56.1945 4.22986ZM28.1733 37.96C28.6604 35.2755 26.3807 32.8294 23.3768 32.8268L23.3733 37.0093C23.5267 37.0095 23.6492 37.1356 23.623 37.2799L28.1733 37.96ZM45.7605 32.7464C45.8379 33.5663 45.4765 34.369 44.7905 34.9044L47.7982 38.0752C49.6081 36.6631 50.559 34.5476 50.3551 32.3901L45.7605 32.7464Z" fill="white"/>
</g>
</svg>
