<svg width="26" height="26" viewBox="0 0 26 26" fill="none" xmlns="http://www.w3.org/2000/svg">
<g id="Pantalla completa">
<path id="Vector" d="M25.6217 0.378886C25.7451 0.50288 25.8382 0.645541 25.9011 0.797745C25.9643 0.949884 25.9992 1.11661 25.9997 1.29146V1.29536V9.09534C25.9997 9.8133 25.4177 10.3953 24.6997 10.3953C23.9818 10.3953 23.3997 9.8133 23.3997 9.09534V4.43382L16.519 11.3146C16.0113 11.8222 15.1882 11.8222 14.6805 11.3146C14.1729 10.8069 14.1729 9.98378 14.6805 9.47609L21.5613 2.59535H16.8998C16.1818 2.59535 15.5998 2.01332 15.5998 1.29536C15.5998 0.577396 16.1818 -0.00463867 16.8998 -0.00463867H24.6995C25.0571 -0.00463867 25.3812 0.139739 25.6162 0.373374L25.6217 0.378886Z" fill="white"/>
<path id="Vector_2" d="M11.3192 16.5145L4.43846 23.3953H9.09997C9.81794 23.3953 10.4 23.9773 10.4 24.6953C10.4 25.4133 9.81794 25.9953 9.09997 25.9953H1.30089H1.2961C0.96591 25.9942 0.63601 25.8683 0.383525 25.6172L0.378013 25.6118C0.254734 25.4878 0.161616 25.3452 0.0986438 25.1929C0.035087 25.0397 0 24.8716 0 24.6953V16.8953C0 16.1773 0.582034 15.5953 1.3 15.5953C2.01796 15.5953 2.59999 16.1773 2.59999 16.8953V21.5568L9.48073 14.6761C9.98842 14.1684 10.8115 14.1684 11.3192 14.6761C11.8268 15.1837 11.8268 16.0069 11.3192 16.5145Z" fill="white"/>
</g>
</svg>
