<svg width="61" height="60" viewBox="0 0 61 60" fill="#FFF" xmlns="http://www.w3.org/2000/svg">
<path fill-rule="evenodd" clip-rule="evenodd" d="M23.54 0.580037C12.9354 2.87232 4.29582 10.8819 0.934689 21.5368C0.172425 23.9532 0.0505371 25.1128 0.0505371 29.9451C0.0505371 34.7629 0.173934 35.9445 0.929406 38.3534C6.5479 56.2731 26.3109 65.026 43.0694 57.0168C50.92 53.2652 56.5053 46.7893 59.1664 38.3534C59.9286 35.937 60.0505 34.7775 60.0505 29.9451C60.0505 25.1274 59.9271 23.9457 59.1717 21.5368C55.9894 11.3875 47.6373 3.3615 37.5977 0.8065C33.7483 -0.173345 27.4909 -0.274244 23.54 0.580037ZM33.9819 9.77571C39.2007 12.2283 40.7415 19.3858 36.986 23.7305C35.1743 25.8269 33.0064 26.7705 30.0256 26.7604C26.9811 26.75 24.9796 25.8878 23.1871 23.8142C18.9211 18.8783 21.1936 11.1322 27.4634 9.23758C29.1419 8.73046 32.3151 8.99243 33.9819 9.77571ZM35.6324 33.3398C40.2939 34.2886 43.8954 35.9527 46.1826 38.2144C48.9653 40.9656 48.9045 41.6868 45.6166 44.9735C41.2856 49.3028 36.152 51.4329 30.0505 51.4329C23.9875 51.4329 18.8498 49.3111 14.4845 45.0034C11.6505 42.207 11.4234 41.4615 12.7905 39.4521C16.1853 34.4639 26.9724 31.5774 35.6324 33.3398Z" fill="#FFF"/>
</svg>
