<svg width="61" height="60" viewBox="0 0 61 60" fill="none" xmlns="http://www.w3.org/2000/svg">
<g id="Property 1=Recientes">
<path id="Vector" fill-rule="evenodd" clip-rule="evenodd" d="M27.8409 0.0351693C20.1317 0.742749 13.7163 3.74934 8.50478 9.09673C4.4072 13.3011 1.78357 18.2398 0.557171 24.0573C0.182074 25.8359 0.131111 26.3693 0.0682291 29.1643C-0.00807824 32.5612 0.150017 34.2847 0.786915 37.0008C3.28875 47.669 11.8071 56.3376 22.4981 59.0953C25.1248 59.7729 27.0372 60.0024 30.0329 60C36.7867 59.9944 42.6792 58.053 48.048 54.0649C49.677 52.8547 52.3133 50.3134 53.4995 48.8097C56.9729 44.4065 59.1365 39.282 59.899 33.6519C60.1289 31.9546 60.0908 27.8425 59.8279 25.9748C58.8733 19.1934 55.8115 13.1767 50.9038 8.43942C46.2981 3.99342 40.6795 1.21776 34.4168 0.29445C32.9863 0.0835189 29.018 -0.0728989 27.8409 0.0351693ZM27.0875 2.01012C23.0371 2.54005 20.0469 3.45103 16.8812 5.11944C9.37662 9.07454 4.07005 16.1624 2.42499 24.4279C1.28627 30.1496 1.85919 35.7383 4.13731 41.1313C6.74395 47.302 12.013 52.7179 18.1821 55.5674C20.4975 56.637 23.4863 57.5184 26.1285 57.9108C28.1548 58.2117 32.6168 58.1398 34.7069 57.7723C37.8275 57.2238 40.6093 56.2872 43.1846 54.918C54.1913 49.0661 60.0392 36.8797 57.6982 24.6731C56.6436 19.1738 53.9958 14.2017 49.9659 10.1523C45.733 5.89907 40.3562 3.14846 34.4168 2.1979C32.8563 1.94821 28.4278 1.83466 27.0875 2.01012ZM26.7428 5.77278C16.7235 7.14096 8.67684 14.4408 6.21008 24.3997C5.77525 26.1548 5.61359 27.672 5.6114 30.0154C5.6077 34.015 6.28611 37.0336 7.98652 40.582C11.2902 47.4764 17.7025 52.4922 25.101 53.9695C28.0005 54.5486 31.5405 54.6056 34.2798 54.1176C40.3335 53.0388 45.7388 49.7232 49.5228 44.7673C52.0625 41.4408 53.7143 37.4919 54.2897 33.3711C54.5068 31.8158 54.5115 27.9536 54.2979 26.5912C53.0186 18.4324 48.1368 11.7386 40.7871 8.06645C36.5833 5.96591 31.4578 5.12889 26.7428 5.77278ZM26.1805 7.76252C17.4492 9.30068 10.3349 15.8915 8.16393 24.4538C4.99259 36.9608 12.867 49.4853 25.5805 52.1554C27.5378 52.5664 31.4129 52.6646 33.2693 52.3503C36.746 51.7615 39.2721 50.8449 41.8831 49.2248C44.8049 47.412 47.6649 44.5238 49.3764 41.6577C54.1261 33.7042 53.6121 23.801 48.0689 16.4692C44.4504 11.6831 39.3702 8.66802 33.2881 7.69705C31.4297 7.40038 28.06 7.43147 26.1805 7.76252ZM29.1053 11.7643L29.1424 14.5379H30.0329H30.9234L30.9605 11.7643L30.9975 8.99072H30.0329H29.0683L29.1053 11.7643ZM14.5143 15.8082L13.87 16.4621L15.7162 18.304L17.5623 20.146L18.1807 19.5392C18.5209 19.2054 18.7991 18.8652 18.7991 18.7829C18.7991 18.6441 15.3572 15.1543 15.2202 15.1543C15.1863 15.1543 14.8686 15.4485 14.5143 15.8082ZM42.3626 17.0034L40.5169 18.8526L41.1664 19.502L41.8159 20.1512L43.6957 18.2717L45.5756 16.3922L44.968 15.7733C44.6339 15.4328 44.3263 15.1543 44.2844 15.1543C44.2425 15.1543 43.3778 15.9864 42.3626 17.0034ZM29.0739 23.6814V29.743L33.5636 34.2302L38.0531 38.7173L38.699 38.0617L39.3448 37.4062L35.1684 33.2322L30.9919 29.0582V23.339V17.6197H30.0329H29.0739V23.6814ZM8.93536 30.0154V30.9057H11.3932C12.7451 30.9057 13.8738 30.8595 13.9016 30.803C13.9293 30.7464 13.9273 30.3458 13.897 29.9127L13.8419 29.1251H11.3886H8.93536V30.0154ZM46.1529 29.2164C46.0397 29.3296 46.0366 30.1823 46.1478 30.5975C46.2296 30.9025 46.2555 30.9057 48.6805 30.9057H51.1304V30.0154V29.1251H48.6873C47.3435 29.1251 46.203 29.1662 46.1529 29.2164ZM15.6789 41.764L13.864 43.5823L14.5522 44.2601L15.2405 44.9378L17.087 43.0956L18.9334 41.2534L18.2891 40.5995C17.9348 40.2398 17.611 39.9456 17.5695 39.9456C17.5278 39.9456 16.6771 40.7639 15.6789 41.764ZM41.1272 40.5646L40.5196 41.1835L42.3995 43.063L44.2793 44.9425L44.9288 44.2933L45.5783 43.6439L43.7326 41.7947C42.7174 40.7777 41.8527 39.9456 41.8108 39.9456C41.7689 39.9456 41.4613 40.2241 41.1272 40.5646ZM29.171 45.5098C29.1176 45.5632 29.0739 46.8294 29.0739 48.3236V51.0401H30.0358H30.9975L30.9605 48.2664L30.9234 45.4928L30.0958 45.4528C29.6405 45.4308 29.2245 45.4564 29.171 45.5098Z" fill="#FFF"/>
</g>
</svg>
