<svg width="50" height="50" viewBox="0 0 50 50" fill="none" xmlns="http://www.w3.org/2000/svg">
<g clip-path="url(#clip0_932_869)">
<path d="M49.2677 4.26777L36.0355 17.5H45C46.3807 17.5 47.5 18.6193 47.5 20C47.5 21.3807 46.3807 22.5 45 22.5H30.0017H29.9925C29.3575 22.498 28.723 22.2557 28.2375 21.773L28.227 21.7625C27.99 21.524 27.8108 21.2498 27.6898 20.957C27.5683 20.6643 27.501 20.3438 27.5 20.0075V20V5C27.5 3.6193 28.6193 2.5 30 2.5C31.3807 2.5 32.5 3.6193 32.5 5V13.9645L45.7323 0.732225C46.7085 -0.244075 48.2915 -0.244075 49.2677 0.732225C50.244 1.70855 50.244 3.29145 49.2677 4.26777Z" fill="white"/>
<path d="M17.5 45C17.5 46.3807 18.6193 47.5 20 47.5C21.3807 47.5 22.5 46.3807 22.5 45V30.0017V29.9925C22.498 29.3077 22.2207 28.688 21.773 28.2375L21.7625 28.227C21.524 27.99 21.2498 27.8108 20.957 27.6898C20.6643 27.5683 20.3438 27.501 20.0075 27.5H20H5C3.6193 27.5 2.5 28.6193 2.5 30C2.5 31.3807 3.6193 32.5 5 32.5H13.9645L0.732225 45.7323C-0.244075 46.7085 -0.244075 48.2915 0.732225 49.2677C1.70855 50.244 3.29145 50.244 4.26777 49.2677L17.5 36.0355V45Z" fill="white"/>
</g>
<defs>
<clipPath id="clip0_932_869">
<rect width="50" height="50" fill="white"/>
</clipPath>
</defs>
</svg>
