<svg width="41" height="40" viewBox="0 0 60 60" fill="none" xmlns="http://www.w3.org/2000/svg">
<g id="Property 1=Tiktok">
<path id="Vector" d="M30.9025 21.1965C30.9025 35.9172 30.8512 42.6433 30.7144 43.2609C30.1844 45.7811 28.2009 48.2846 25.8584 49.3861C22.0967 51.1553 17.8733 50.3542 15.052 47.3333C14.0945 46.3152 13.2567 44.7797 12.966 43.5613C12.6582 42.2928 12.7437 40.0397 13.1199 38.8547C14.4023 34.8156 18.8309 32.0618 23.02 32.696C23.6698 32.7961 24.3195 32.9297 24.4734 32.9797C24.7128 33.0799 24.747 32.5959 24.747 28.1563C24.747 24.3843 24.6957 23.1826 24.5418 23.0825C24.1143 22.8321 19.4293 22.9656 17.993 23.2661C11.7862 24.6013 6.96437 28.2898 4.31408 33.7642C0.193295 42.2928 3.51044 52.4905 12.0085 57.4475C16.2319 59.9176 21.8402 60.652 26.7304 59.4002C32.8005 57.848 37.7762 53.4085 39.8793 47.6837C40.9736 44.7129 40.9907 44.4292 40.9907 31.4109V19.661L41.8115 20.2451C45.5048 22.8488 50.0017 24.3843 55.1484 24.7849L56.5505 24.885V19.9614V15.0211H55.7298C52.3443 15.0211 48.138 13.2019 45.5048 10.5816C42.9742 8.09472 41.3156 4.60648 41.042 1.28514L40.9394 0H35.9295H30.9025V21.1965Z" fill="#FFF"/>
</g>
</svg>
