<?xml version="1.0" encoding="utf-8"?>
<!-- Generator: Adobe Illustrator 24.1.1, SVG Export Plug-In . SVG Version: 6.00 Build 0)  -->
<svg version="1.1" id="Capa_1" xmlns="http://www.w3.org/2000/svg" xmlns:xlink="http://www.w3.org/1999/xlink" x="0px" y="0px"
	 viewBox="0 0 800 800" style="enable-background:new 0 0 800 800;" xml:space="preserve">
<style type="text/css">
	.st0{fill-rule:evenodd;clip-rule:evenodd;fill:#FFFFFF;}
</style>
<path class="st0" d="M53.3,61.8c-16.1,16.1-16.1,42.2,0,58.3l41.2,41.2c16.1,16.1,42.2,16.1,58.3,0c16.1-16.1,16.1-42.2,0-58.3
	l-41.2-41.2C95.4,45.7,69.4,45.7,53.3,61.8z M712.6,61.8c16.1-16.1,42.2-16.1,58.3,0c16.1,16.1,16.1,42.2,0,58.3l-41.2,41.2
	c-16.1,16.1-42.2,16.1-58.3,0c-16.1-16.1-16.1-42.2,0-58.3L712.6,61.8z M729.7,515.1l41.2,41.2c16.1,16.1,16.1,42.2,0,58.3
	c-16.1,16.1-42.2,16.1-58.3,0l-41.2-41.2c-16.1-16.1-16.1-42.2,0-58.3C687.5,499,713.6,499,729.7,515.1z M53.3,614.6
	c-16.1-16.1-16.1-42.2,0-58.3l41.2-41.2c16.1-16.1,42.2-16.1,58.3,0c16.1,16.1,16.1,42.2,0,58.3l-41.2,41.2
	C95.4,630.7,69.4,630.7,53.3,614.6z M758.8,379.4c22.8,0,41.2-18.4,41.2-41.2c0-22.8-18.4-41.2-41.2-41.2l-17.1,0
	c-22.8,0-41.2,18.4-41.2,41.2c0,22.8,18.4,41.2,41.2,41.2H758.8z M0,346.7c0,22.8,18.5,41.2,41.2,41.2h17.1
	c22.8,0,41.2-18.5,41.2-41.2c0-22.8-18.5-41.2-41.2-41.2l-17.1,0C18.4,305.5,0,324,0,346.7z M553.7,540.9
	c63.9-44.7,105.6-118.8,105.6-202.7c0-136.6-110.7-247.3-247.3-247.3c-136.6,0-247.3,110.7-247.3,247.3c0,83.9,41.8,158,105.6,202.7
	c-14.5,17.8-23.2,40.4-23.2,65.2c0,49.9,35.4,91.4,82.5,101c0,0.7,0,1.4,0,2.1c0,22.8,18.4,41.2,41.2,41.2h82.4
	c22.8,0,41.2-18.4,41.2-41.2c0-0.7,0-1.4,0-2.1c47-9.5,82.5-51.1,82.5-101C576.9,581.3,568.2,558.6,553.7,540.9z M412.1,503
	c91,0,164.8-73.8,164.8-164.8c0-91-73.8-164.8-164.8-164.8c-91,0-164.8,73.8-164.8,164.8C247.2,429.2,321,503,412.1,503z
	 M412.1,585.4h-3.5h-58.3c-11.4,0-20.6,9.2-20.6,20.6s9.2,20.6,20.6,20.6h58.3h7h58.3c11.4,0,20.6-9.2,20.6-20.6
	s-9.2-20.6-20.6-20.6h-58.3H412.1z"/>
</svg>
