<svg width="41" height="40" viewBox="0 0 41 40" fill="#FFF" xmlns="http://www.w3.org/2000/svg">
<g id="Iconos">
<path id="Vector" d="M26.4205 2.12417C24.6945 2.4474 23.2028 3.24738 21.8906 4.57259C20.7504 5.72004 19.9147 7.19071 19.5163 8.76642C19.2742 9.72801 19.1883 11.5138 19.3367 12.4673C19.3836 12.8067 19.407 13.0976 19.3836 13.1299C19.2977 13.2108 16.8765 12.9037 15.7597 12.6613C13.6587 12.2168 11.8702 11.5866 9.92545 10.6007C7.39495 9.32398 5.48927 7.93412 3.40395 5.83317C2.91191 5.33217 2.41987 4.87966 2.32615 4.83117C2.05279 4.67764 1.48265 4.70996 1.20148 4.87966C0.678198 5.1948 0.381411 6.18063 0.311119 7.81291C0.233018 9.50984 0.514184 10.9563 1.2171 12.4593C1.78724 13.6875 2.4433 14.5602 3.40395 15.344L3.98971 15.8289L3.5992 15.7723C3.38833 15.74 2.826 15.6269 2.34958 15.5218C1.2952 15.2875 1.10776 15.2794 0.717249 15.5137C-0.134061 16.0066 -0.11063 16.9763 0.810971 18.8268C1.95126 21.1459 4.10687 22.9398 6.48116 23.5701L7.02006 23.7074L6.44211 23.8367C6.12189 23.9095 5.52051 23.9983 5.09876 24.0387C4.46613 24.1034 4.30212 24.1438 4.14592 24.2973C3.9038 24.5317 3.76322 24.968 3.83351 25.2508C4.00533 25.9862 5.55956 27.8609 6.56707 28.5558C7.87137 29.4527 9.33969 30.0103 10.8002 30.1558L11.3625 30.2123L10.7924 30.6487C9.49589 31.6264 7.59021 32.6365 6.09065 33.1537C4.48956 33.6951 2.41987 34.0749 1.03747 34.0749C0.498564 34.0749 0.404841 34.0991 0.240828 34.2769C-0.157491 34.6809 -0.0169082 34.891 0.974985 35.4001C3.3649 36.6445 5.83292 37.4202 8.71487 37.8485C10.0817 38.0505 13.8852 38.0505 15.2364 37.8485C20.1568 37.1132 23.9057 35.4486 27.4905 32.4264C33.1139 27.6669 36.6675 19.8772 36.6753 12.2815V10.9724L37.2455 10.5038C38.5341 9.43711 40.0337 7.79675 40.0337 7.44929C40.0337 7.19071 39.776 6.92405 39.526 6.92405C39.4167 6.92405 39.034 7.01293 38.6669 7.12606C37.9171 7.34424 36.3239 7.67554 36.1989 7.63514C36.1598 7.61898 36.3317 7.45737 36.5894 7.27151C37.5891 6.53618 38.6669 5.29985 39.1433 4.32209C39.3464 3.90998 39.3386 3.71605 39.1277 3.4898C38.9403 3.29586 38.6279 3.34435 37.8625 3.69181C36.9721 4.08776 35.7303 4.51603 34.9336 4.70189L34.3323 4.83925L33.8637 4.39482C32.9264 3.4898 31.5362 2.67365 30.3881 2.34235C29.1463 1.9868 27.6077 1.89791 26.4205 2.12417Z" fill="#FFF"/>
</g>
</svg>
